<?xml version="1.0" encoding="UTF-8" standalone="no"?>
<!-- Created with Inkscape (http://www.inkscape.org/) -->
<svg xmlns:inkscape="http://www.inkscape.org/namespaces/inkscape" xmlns:rdf="http://www.w3.org/1999/02/22-rdf-syntax-ns#" xmlns="http://www.w3.org/2000/svg" xmlns:xlink="http://www.w3.org/1999/xlink" xmlns:ns1="http://sozi.baierouge.fr" xmlns:cc="http://creativecommons.org/ns#" xmlns:dc="http://purl.org/dc/elements/1.1/" xmlns:sodipodi="http://sodipodi.sourceforge.net/DTD/sodipodi-0.dtd" id="svg4243" sodipodi:docname="man-boat.svg" viewBox="0 0 475.99 556.19" version="1.1" inkscape:version="0.48.4 r9939">
  <sodipodi:namedview id="namedview4245" fit-margin-left="20" inkscape:zoom="0.48160808" borderopacity="1" inkscape:current-layer="svg4243" inkscape:cx="421.43452" inkscape:cy="422.99096" inkscape:window-maximized="1" showgrid="false" fit-margin-right="20" bordercolor="#666666" inkscape:window-x="0" guidetolerance="10" objecttolerance="10" inkscape:window-y="0" fit-margin-bottom="20" inkscape:window-width="1366" inkscape:pageopacity="0" inkscape:pageshadow="2" pagecolor="#ffffff" gridtolerance="10" inkscape:window-height="715" fit-margin-top="20"/>
  <path id="path4868" style="fill:#000000" inkscape:connector-curvature="0" d="m130 533.75c-2.475-1.279-9-3.533-14.5-5.0089-10.572-2.8371-14.083-2.9081-42.702-0.8642-8.2426 0.5887-8.956 0.4757-13.5-2.1381-10.469-6.02-24.298-18.05-24.298-21.14 0-1.3364-1.2105-1.7637-3.9136-1.3815-0.7775 0.11-2.3525-0.2774-3.5-0.8609-1.1475-0.5834-3.3239-1.5089-4.8364-2.0566-2.1744-0.7875-2.75-1.629-2.75-4.0207 0-3.6463 0.4392-3.7329 3.298-0.6504 1.2111 1.3059 4.8397 3.4036 8.0636 4.6615 4.4216 1.7252 6.7554 3.4289 9.5 6.9351 3.8408 4.9065 12.41 12.508 16.941 15.029 2.2383 1.2451 6.7215 1.4419 26.335 1.1563 23.924-0.3483 31.792 0.3569 38.617 3.4617 5.5373 2.5191 17.498 5.3342 22.768 5.3589 6.0259 0.028 33.088-6.6255 41.548-10.215 3.2986-1.3997 11.665-14.146 14.07-21.437 1.5211-4.6106 1.914-9.6628 2.2327-28.71 0.2155-12.877 0.9184-25.435 1.587-28.354 1.6759-7.3158 1.7938-24.505 0.2213-32.261-3.0161-14.877-3.6718-24.067-3.3888-47.5 0.3084-25.538-0.6126-36.89-4.0565-50-3.0107-11.461-3.1138-30.507-0.1922-35.48 1.4095-2.3994 3.1701-3.7972 5.6681-4.5 1.9929-0.56073 3.9277-1.3244 4.2996-1.6971 0.7144-0.71602-9.6718-5.8224-11.843-5.8224-2.913 0-6.7262 2.7472-8.8751 6.3941-1.262 2.1418-3.2462 4.9138-4.4092 6.1601-1.3762 1.4747-1.818 2.7339-1.2653 3.6059 1.4979 2.3632 0.954 2.9738-2.3631 2.6533-2.3542-0.22748-3.5895-1.0398-4.5069-2.9638-1.6198-3.397-0.662-6.1151 1.8714-5.311 2.9955 0.95073 4.8837-1.7317 4.1971-5.9625-0.4782-2.9468-0.1452-4.1318 1.7185-6.1156 1.2713-1.3533 2.9402-2.4605 3.7086-2.4605 1.6596 0 3.6114-1.8269 4.5224-4.2331 0.3967-1.0477 1.2644-1.4998 2.1941-1.143 0.9906 0.38014 1.5378 0.0183 1.5378-1.0169 0-0.88385-0.4132-1.607-0.9182-1.607s-1.5686-0.24956-2.3635-0.55459c-0.8657-0.33221-3.6051 1.4689-6.8317 4.4918-2.9626 2.7755-6.1741 5.0501-7.1366 5.0546-1.7955 0.008-2.0841 1.1073-1.7747 6.7582 0.098 1.7875-0.2762 3.25-0.8313 3.25-1.625 0-2.3498-3.7469-1.1563-5.9771 0.8798-1.6438 0.7778-2.1757-0.5118-2.6706-2.7051-1.038-3.5269 0.97296-3.6913 9.0327-0.087 4.25-0.5277 7.9561-0.98 8.2357-1.6528 1.0214-4.9445-0.85863-5.899-3.3692-1.4491-3.8113-2.7246-1.7708-4.5809 7.3282-1.7333 8.4957-1.75 8.336 2.6553 25.42 1.9356 7.5065 2.8098 17.544 1.6306 18.723-0.2302 0.23019-0.8975-1.5258-1.4828-3.9021-0.5854-2.3763-2.0202-7.6956-3.1885-11.821-2.8178-9.9487-4.0736-23.062-2.8213-29.462 0.5422-2.771 1.118-9.7638 1.2796-15.54 0.415-14.832 3.3616-19.531 11.04-17.604 1.5766 0.39568 3.6755-0.11887 5.9435-1.457 3.933-2.3205 6.9732-1.5487 8.119 2.0611 0.8303 2.6162 1.6602 2.5242 4.5003-0.49894 3.2053-3.4118 8.3446-3.4299 10.568-0.0371l1.6138 2.4629 2.83-2.0923c2.7539-2.036 3.081-2.0529 12.159-0.62779 5.1311 0.8055 12.049 1.2785 15.373 1.051 5.929-0.40568 6.0851-0.49243 8.2528-4.5851 1.2152-2.2944 2.2082-5.129 2.2067-6.2992 0-1.1702 0.6752-2.6902 1.5038-3.378 1.3181-1.0939 1.2094-1.5159-0.8693-3.3724-2.6741-2.3882-4.0126-8.5048-2.6471-12.096 0.7575-1.9922 0.4937-2.4877-1.8014-3.3851-14.767-5.7739-22.011-8.3989-23.698-8.5878-1.1052-0.12373-2.9881-0.74874-4.1842-1.3889-1.1962-0.64017-3.4873-1.1639-5.0913-1.1639-1.6041 0-4.2212-0.39932-5.8158-0.88738-9.7519-2.9848-54.417-6.2834-67.899-5.0144-12.908 1.2149-24.371 2.9022-27.198 4.0033-1.5414 0.60054-5.0525 1.4508-7.8025 1.8895-10.25 1.635-24.899 6.076-28.102 8.5194-3.408 2.5994-5.9254 3.0744-8.3063 1.5671-1.4741-0.93313-1.6812-0.55226 9.5068-17.482 2.1461-3.2475 4.647-7.0115 5.5576-8.3645 3.3762-5.0165 19.136-21.335 23.512-24.346 2.4893-1.7127 6.395-4.99 8.6793-7.283 8.487-8.5194 16.963-14.627 29.756-21.441 10.496-5.5908 20.601-9.6799 28.898-11.694 3.025-0.7343 10.675-2.6669 17-4.2947s15.1-3.2598 19.5-3.6267c11.925-0.9944 14.398-1.7054 15.813-4.5455 1.7453-3.5037 6.2343-5.3606 12.36-5.1127 4.9898 0.20188 5.2995 0.0631 6.8927-3.0879 0.9175-1.8146 2.628-4.3517 3.8012-5.6379l2.133-2.3386-2.8815-2.3038c-2.5333-2.0254-2.8001-2.7373-2.2082-5.8923 0.478-2.5481 1.7484-4.3842 4.3814-6.3326 2.0396-1.5092 5.0034-4.049 6.5864-5.644l2.8781-2.8999-0.6534-10.125c-0.923-14.304 1.169-24.927 5.6675-28.779 1.7763-1.5209 3.7371-2.7835 4.3573-2.8059 0.6201-0.0224 1.6877-0.71564 2.3724-1.5406 0.6847-0.825 2.5398-1.5 4.1224-1.5 1.5827 0 2.8776-0.41045 2.8776-0.9121 0-0.50166 1.8-1.2162 4-1.5879 2.2-0.37169 4-0.99584 4-1.387 0-0.91211 6.3372-3.2442 11.5-4.232 2.2-0.42093 6.25-1.307 9-1.9691 6.4943-1.5636 33.146-1.5533 41.5 0.016 3.575 0.67156 10.1 1.6048 14.5 2.074 4.4 0.46912 10.7 1.9588 14 3.3105s7.575 2.7928 9.5 3.2026c1.925 0.40978 5.3811 2.0365 7.6802 3.615s4.682 2.87 5.2954 2.87 2.1507 1.0354 3.4161 2.3008c2.0572 2.0572 2.2255 2.8779 1.5892 7.75-0.7056 5.4032 0.1213 17.366 1.9321 27.949 0.5175 3.025 0.9739 6.263 1.014 7.1954 0.04 0.93249 1.3015 2.2843 2.8031 3.0039 1.6397 0.78589 3.7365 3.3413 5.25 6.3982 1.3859 2.7993 3.558 6.5029 4.8268 8.2303 1.6729 2.2775 2.4676 5.0591 2.8921 10.121l0.5852 6.9807-3.217 1.785c-5.9463 3.2995-6.0787 3.5222-7.0078 11.787-0.7058 6.2787-0.6182 8.1566 0.4078 8.7348 0.7189 0.40507 2.7612 3.0026 4.5385 5.7723 2.9323 4.5697 3.1838 5.566 2.7168 10.763-0.7484 8.3284-2.6913 17.147-4.7889 21.736-2.0453 4.4743-1.4138 10.199 1.4776 13.394 0.8738 0.9656 1.5888 2.3127 1.5888 2.9936 0 0.68089 1.0643 2.6705 2.3652 4.4213 1.3008 1.7508 3.0776 5.3328 3.9483 7.9599 2.5846 7.7978 4.2767 9.2412 10.686 9.1156 3.025-0.0593 7.3-0.45135 9.5-0.87129 3.0918-0.59017 3.7439-0.49129 2.8723 0.43548-1.3383 1.4228-7.5837 2.9862-12.063 3.0197-1.755 0.0131-3.4395 0.42605-3.7433 0.91763-1.0705 1.7321 2.4697 8.1692 5.0276 9.1417 5.4746 2.0814 14.542 0.7673 16.602-2.4062 0.3826-0.58924 1.0417-0.72529 1.4647-0.30234 1.2672 1.2672-1.1141 4.0168-4.1916 4.8399-1.5831 0.42337-4.597 0.92996-6.6978 1.1258-5.3053 0.49446-6.3073 1.7695-4.356 5.5429 0.8718 1.6859 1.5851 3.7626 1.5851 4.6149 0 0.88299 0.8604 1.5497 2 1.5497 2.1091 0 2.691 1.4549 1 2.5-1.4262 0.88145-1.2265 3.542 0.5168 6.8848 1.066 2.0441 1.1997 3.252 0.4587 4.1448-0.6008 0.72395-0.854 3.9638-0.5951 7.6152 0.2479 3.4954 0.4887 7.7411 0.5351 9.4349l0.085 3.0797 5.75-0.88203c3.1625-0.48512 6.9404-1.2516 8.3954-1.7034 3.1075-0.96479 4.2802-0.33227 4.5539 2.4562 0.1873 1.9079-0.3843 2.0366-9.4868 2.135-10.992 0.11893-10.913 0.0509-11.113 9.6006-0.097 4.6163-0.012 4.7592 2.6789 4.5542 1.5283-0.11645 3.3763 0.15765 4.1068 0.60911 2.0908 1.2922-0.8105 2.688-4.1354 1.9896l-2.75-0.57768v6.8786 6.8786l3.321 1.2009c1.8266 0.66049 4.5562 1.2009 6.0658 1.2009s3.652 0.48557 4.7609 1.079c1.6115 0.86246 2.2945 0.71192 3.4025-0.75 3.2915-4.343 0.5663-7.7198-7.0263-8.7062-5.034-0.65405-8.2557-2.6298-7.1653-4.3941 0.6325-1.0233 7.9039 0.27125 10.641 1.8945 0.825 0.4892 2.175 1.1962 3 1.5711 3.7175 1.6894 5.0568 6.4625 2.929 10.438-0.8158 1.5242-0.6966 2.573 0.5 4.3991 0.864 1.3188 1.571 3.7859 1.571 5.4826 0 3.5213-2.8725 9.7482-3.851 8.3479-0.7968-1.1404-13.134-3.7104-13.941-2.9039-0.3193 0.31929-0.1593 1.7461 0.3556 3.1708 0.6578 1.8199 2.2199 3.0215 5.2526 4.0405 5.9954 2.0144 9.4428 1.453 10.254-1.6698l0.6492-2.5 1.1618 2.8716c0.8516 2.1049 0.8661 3.228 0.054 4.2062-0.6365 0.76692-0.7521 1.8849-0.2718 2.6284 0.4597 0.71159 0.864 2.9813 0.8984 5.0438 0.048 2.8786-0.3302 3.75-1.6273 3.75-0.9294 0-2.25-0.675-2.9347-1.5-1.6216-1.9538-7-2.0039-7-0.0651 0 3.2784 2.011 6.5651 4.017 6.5651 1.1367 0 3.0186 0.88694 4.1822 1.971 1.8835 1.7547 1.9338 2.0408 0.4582 2.607-1.006 0.38603-1.6574 1.7546-1.6574 3.482 0 4.1437-1.7018 7.2324-5.0407 9.1487-1.6154 0.9271-2.7611 2.2719-2.5459 2.9885 0.9744 3.2452 2.6668 11.214 4.6308 21.803 1.173 6.325 2.9765 15.775 4.0075 21 1.0311 5.225 2.436 15.737 3.1219 23.36 1.2031 13.37 1.1779 13.911-0.7132 15.321-1.0782 0.8036-1.7879 1.9918-1.577 2.6405 0.2109 0.6486 0.7157 2.8819 1.1218 4.9628 0.6012 3.0799 0.4092 3.9596-1.0323 4.7311-1.4781 0.791-1.6261 1.5708-0.8957 4.7166 1.8967 8.1689 0.7683 14.269-2.6397 14.269-1.9079 0-8.0842-5.3735-12.286-10.689l-3.9309-4.9731-8.8605 2.2791c-4.8732 1.2535-10.352 2.3024-12.176 2.3309-1.8237 0.028-4.2345 0.5435-5.3574 1.1444-1.3605 0.7281-2.3751 0.7592-3.0412 0.093-0.666-0.666 0.9546-1.4028 4.8574-2.2084 3.2213-0.6648 7.4319-1.9976 9.3569-2.9616 1.925-0.9641 5.6375-2.0646 8.25-2.4456 2.6125-0.3809 4.75-0.8351 4.75-1.0093 0-1.9018-3.3835-7.6279-4.3001-7.2772-5.1719 1.9789-12.787 3.9628-13.288 3.4617-1.8262-1.8262 7.4332-7.1992 11.174-6.4841 2.2373 0.4277 2.2645 0.3507 0.8449-2.3944-1.4487-2.8015-1.5126-2.8186-5.1989-1.3893-6.5031 2.5213-16.481 4.3007-24.232 4.3216-8.3695 0.023-8.7137 0.1285 9.5-2.9253 3.85-0.6455 8.4804-2.054 10.29-3.1299 1.8094-1.076 4.1719-1.7257 5.25-1.4437 2.3513 0.6148 2.3806 0.4136 0.476-3.2695l-1.4841-2.8699-5.2518 1.9196c-2.8885 1.0558-6.3831 1.8735-7.7659 1.8172-2.1682-0.088-2.0678-0.2083 0.7297-0.8724 3.7675-0.8944 6.4738-2.8641 5.6862-4.1385-0.3014-0.4877-3.784-0.9587-7.739-1.0468-3.9551-0.088-5.616-0.3127-3.691-0.4994 11.235-1.0894 14-1.592 14-2.5445 0-0.583-0.9161-2.5423-2.0358-4.3539l-2.0358-3.294-6.7368 2.419c-3.7053 1.3304-8.0767 2.629-9.7142 2.8857-1.6376 0.2567-5.2274 0.9441-7.9774 1.5275-2.75 0.5833-6.1947 0.8001-7.6548 0.4816s-2.9492-0.1027-3.309 0.4795-1.8917 1.0586-3.4041 1.0586c-4.7523 0-6.0916 1.8413-5.0915 7 0.4799 2.475 1.3239 6.9196 1.8757 9.8768 0.5518 2.9573 1.7239 6.1731 2.6046 7.1463 0.8808 0.9732 1.164 1.9286 0.6294 2.1232-0.5346 0.1945-1.0577 1.9287-1.1624 3.8537-0.3942 7.2428-0.024 7.9779 3.0121 5.9847 1.3333-0.8753 1.3333-1.0941 0-1.9694-1.6506-1.0835-1.5553-1.1621 1.8323-1.5103 1.2827-0.1319 2.5683 0.3755 2.857 1.1276 0.2886 0.7521 1.575 1.3674 2.8587 1.3674 3.3186 0 3.8942 1.6224 1.6071 4.53-1.1405 1.4499-2.1388 2.0189-2.3628 1.3469-0.2926-0.8778-0.9128-0.8828-2.5246-0.02-1.4894 0.79714-2.9337 0.84064-4.7673 0.1434-1.4468-0.5501-2.8923-1.0001-3.2122-1.0001-0.6649 0 0.3801 13.972 1.2059 16.124 0.8997 2.3445 4.5721 4.2098 5.8238 2.9581 1.6248-1.6248 2.6821-1.3076 2.6821 0.8044 0 2.062 3.9529 3.3547 9.75 3.1885 10.207-0.2926 15.338 0.064 22.236 1.5471 2.2225 0.4778 2.2987 0.6391 0.7187 1.5234-1.1934 0.6678-2.9063 0.613-5.2748-0.1687-2.7131-0.8954-4.688-0.8671-8.7187 0.1249-2.8661 0.7054-6.3361 1.1595-7.7111 1.0092-2.3693-0.259-2.4104-0.1814-0.7869 1.4852 1.3397 1.3754 2.2114 1.5392 4 0.7517 2.625-1.1558 10.787-0.5828 10.787 0.7572 0 0.4922-0.8836 1.7786-1.9635 2.8585-1.08 1.0799-1.5568 2.2149-1.0596 2.5222 0.4971 0.3072 1.7182-0.2919 2.7135-1.3314 1.4021-1.4644 3.7239-2.0028 10.31-2.3908 4.675-0.2755 9.9625-0.2839 11.75-0.019 5.8523 0.8683 3.4077 2.2549-4 2.2689-9.3601 0.018-11.446 0.6371-12.195 3.6227-1.0453 4.165 1.4583 5.507 11.017 5.9053 4.6906 0.1955 9.4058 0.6339 10.478 0.9742 2.6953 0.8555 2.4407 3.9529-0.5162 6.2788-1.3563 1.0669-2.1813 2.2245-1.8333 2.5726 0.348 0.348-1.9438 0.6327-5.0929 0.6327-3.5625 0-5.4922-0.3778-5.1077-1 0.3399-0.55 1.2453-1 2.012-1 2.4538 0 6.488-2.2761 6.488-3.6605 0-1.6148-0.4191-1.671-10.236-1.3716-7.5054 0.2288-7.7655 0.1583-8.7253-2.366-0.544-1.4311-1.6612-2.6019-2.4826-2.6019-0.8528 0-1.2681-0.587-0.9682-1.3686 0.7893-2.0567-3.6696-2.8675-5.694-1.0354-1.5032 1.3603-2.0627 1.3603-5.3198-0.0006-2.8295-1.1822-4.2449-1.2764-6.357-0.4228-1.678 0.6782-13.616 1.2236-31.217 1.4263-15.675 0.1805-30.3 0.4293-32.5 0.5528-2.2 0.1236-7.375 0-11.5-0.2746s-10.342-0.2274-13.816 0.1049c-4.8063 0.4598-6.5 0.2755-7.0857-0.7709-0.6457-1.154-1.3788-1.1207-4.556 0.2068-5.4311 2.2693-11.214 2.0801-12.774-0.4179-1.0141-1.6239-2.332-2-7.0085-2-5.3616 0-5.7594-0.1607-5.7594-2.3257 0-2.6551 3.8025-6.6743 6.3145-6.6743 0.927 0 1.6855-0.4858 1.6855-1.0795 0-0.6383-1.1238-0.8647-2.75-0.5539-1.5125 0.289-7.025 0.6623-12.25 0.8294-9.0338 0.2891-9.5484 0.1936-10.487-1.946-1.0527-2.3993-3.0919-3.2014-2.1947-0.8632 0.3743 0.9754-0.043 1.2363-1.4079 0.8795-1.4909-0.3899-1.7925-0.1228-1.3026 1.1538 0.4689 1.2218-0.1884 1.9728-2.4851 2.8397-3.6324 1.3711-4.1318 2.6025-0.8726 2.1514 1.2375-0.1712 4.8375-0.5263 8-0.789 5.0458-0.4192 5.75-0.2574 5.75 1.3209 0 1.5235-1.224 1.9054-8.0017 2.4966-6.2385 0.5442-8.2154 1.0974-8.9716 2.5104-0.6802 1.271-2.6959 2.0252-6.7483 2.5249-7.7435 0.9548-21.79 4.0524-26.998 5.9536-2.4162 0.8821-7.3304 1.5223-11.5 1.4982-5.5786-0.032-9.3633 0.6704-16.188 3.0053-5.7408 1.964-11.784 3.2366-17 3.5798-21.512 1.4156-20.839 1.4423-25.593-1.0145zm69.75-13.187c-0.9625-0.2516-2.5375-0.2516-3.5 0-0.9625 0.2515-0.175 0.4573 1.75 0.4573s2.7125-0.2058 1.75-0.4573zm20.7-3.2246c2.4536-0.053 3.5901-0.439 3-1.0175-1.0463-1.0258-25.085-1.7667-26.049-0.8028-0.3307 0.3306-0.3737 0.9686-0.096 1.4176 0.4387 0.7089 5.2495 0.7926 23.145 0.4027zm175.15-2.8153c-1.0165-1.0165-1.8553 0.5139-1.0213 1.8634 0.6301 1.0194 0.8656 1.0202 1.2044 0 0.2316-0.6948 0.1492-1.5351-0.1831-1.8674zm-110.79-2.4868c0.6688-0.6687 2.6713-1.2312 4.45-1.25 2.1929-0.023 3.2341-0.5169 3.2341-1.534 0-2.4512-10.522-2.6125-13.493-0.2069-1.3216 1.0702-2.0154 2.3846-1.6073 3.0449 0.9445 1.5282 5.8697 1.4924 7.416-0.054zm-71.071-2.1258c0.6845-0.4233 5.9906-0.6882 11.791-0.5886 5.8006 0.1 10.784-0.057 11.075-0.3469 0.2904-0.2904-0.062-1.4718-0.7819-2.6253-1.0129-1.6221-2.2185-2.0593-5.3193-1.9293l-4.0094 0.1681 3.75 0.3922c2.4307 0.2543 3.75 0.9029 3.75 1.8437 0 1.1225-1.0764 1.3582-4.75 1.0404-2.6125-0.2261-6.325-0.497-8.25-0.602l-3.5-0.1909 3.5-1.096c3.0628-0.9591 3.2117-1.1449 1.1922-1.487-1.2693-0.215-3.4845 0.3801-4.9226 1.3224-1.5966 1.0461-4.7865 1.7593-8.1922 1.8315-5.4749 0.1161-8.0774 0.9328-8.0774 2.535 0 1.0103 11.054 0.7784 12.745-0.2673zm85.877 0.027c0.7579 0.2909 1.3781 0.031 1.3781-0.5781 0-0.6089-1.35-1.107-3-1.107-2.8791 0-3.7665 0.9002-2.3167 2.35 0.3759 0.3758 1.1057 0.261 1.6219-0.2552s1.5587-0.7006 2.3167-0.4097zm34.878-5.0589c8.1763-2.5103 8.9821-3.0037 9.1182-5.5831 0.1052-1.9948-0.2236-2.1692-3-1.5906-1.715 0.3574-5.2688 0.9161-7.8974 1.2414-5.3514 0.6624-5.216 0.55-6.203 5.1486-0.5499 2.5626-0.4024 3.2589 0.6324 2.9842 0.7424-0.1971 4.0498-1.1873 7.3498-2.2005zm-12.138-0.1262c0.3166-0.825 0.1398-1.5-0.393-1.5-0.5327 0-0.9686 0.675-0.9686 1.5s0.1769 1.5 0.393 1.5c0.2162 0 0.652-0.675 0.9686-1.5zm60.138 0.5c0.3399-0.55 0.254-1.0062-0.191-1.0137-0.4449-0.01-1.8215-0.285-3.059-0.6166-1.6541-0.4433-2.25-0.1748-2.25 1.0137 0 1.8047 4.4569 2.3044 5.5 0.6166zm-75.825-1.658c-0.3619-0.3619-0.099-1.3356 0.5834-2.1637 1.082-1.3125 0.9526-1.3519-1.0087-0.3069-2.6419 1.4078-2.9628 3.1286-0.5833 3.1286 0.9166 0 1.3705-0.2961 1.0086-0.658zm-63.063-1.8993c3.0135-0.3765 5.1928-0.9677 4.843-1.3137-0.7024-0.6946-1.281-0.7533-9.9554-1.0114-4.7577-0.1415-5.6228-0.3978-4.1782-1.2379 1.1206-0.6517 4.1073-0.7942 7.7603-0.3702 5.2274 0.6067 6.5339 0.378 10.91-1.9101 2.7342-1.4297 5.6124-2.5994 6.3961-2.5994 0.9267 0 1.2441-0.6908 0.908-1.9761-0.4015-1.5355-0.9096-1.7659-2.2787-1.0332-1.1085 0.5933-3.012 0.5844-5.133-0.024-1.8541-0.5317-7.6866-0.9668-12.961-0.9668-5.2745 0-9.9109-0.3209-10.303-0.7131-0.3922-0.3923-4.6095-0.8595-9.3716-1.0384-8.1046-0.3044-10.175-0.6771-9.1653-1.65 0.2292-0.2208 6.4917 0.031 13.917 0.5597 7.425 0.5286 20.7 1.1748 29.5 1.4361 19.294 0.5728 21.188 0.8713 19.377 3.0539-0.9686 1.1671-2.3802 1.4176-5.5447 0.9839-2.4642-0.3378-4.5104-0.1529-4.8773 0.4407-0.4135 0.6691 1.7322 0.9197 6.2065 0.7249l6.8385-0.2977-0.064-3.5-0.064-3.5-4.8313 0.347c-2.6571 0.1909-7.3532 0.01-10.436-0.4031-8.251-1.1043-2.8734-2.3638 7.2563-1.6995 5.949 0.3901 8.0631 0.1881 8.6928-0.8309 0.9267-1.4995-0.7793-4.201-2.1269-3.3681-1.1475 0.7091-18.184-1.6814-19.376-2.7189-1.2752-1.1094 13.941-1.0129 18.821 0.1194 4.3808 1.0164 6.6287 0.4898 6.6287-1.5529 0-0.9913-1.3699-1.401-4.75-1.4207-6.0515-0.035-19.619-1.1121-20.167-1.6005-0.4456-0.3976 12.989-0.7762 21.667-0.6105 4.5552 0.087 5.25-0.1552 5.25-1.8305 0-1.7745-0.83-1.9404-10.25-2.0491-5.6375-0.065-11.6-0.4619-13.25-0.8817-3.3278-0.8468-4.1498-0.758 14-1.5132 4.4-0.183 8.3507-0.3675 8.7793-0.4098 0.9811-0.097 0.097-17.293-1.1492-22.35-0.5113-2.0749-1.5756-4.7749-2.365-6s-2.9201-7.6274-4.7348-14.227c-1.8148-6.6-4.4068-14.427-5.7601-17.394-3.7367-8.1917-5.2702-13.024-5.2702-16.609 0-3.8442-1.2151-5.0375-6.5394-6.4217-20.096-5.2248-21.66-6.0949-24.266-13.496-1.3737-3.9015-2.5575-5.3733-5.7135-7.1036-2.4434-1.3396-4.7202-3.6572-5.8953-6.0009-1.7295-3.4493-1.7941-4.4018-0.6684-9.8521 0.6854-3.3185 1.959-8.0786 2.83-10.578 0.8711-2.4994 1.6668-7.4694 1.7682-11.044 0.1014-3.575 0.5456-9.3808 0.9872-12.902 0.6905-5.5066 0.5604-6.5791-0.9311-7.6697-1.2896-0.94298-2.4997-1.0009-4.7225-0.22603-5.4672 1.9059-11.593 0.45363-15.923-3.7752-2.1389-2.0886-4.195-3.4913-4.5691-3.1172-0.8943 0.89424 1.4406 16.945 3.3007 22.69 1.7041 5.2632 3.7292 20.327 3.6971 27.5-0.012 2.75-0.1906 14.018-0.3963 25.041-0.2475 13.272 0.01 21.04 0.7481 23 2.8196 7.4364 4.9949 39.635 3.1894 47.208-0.492 2.0631-1.1511 7.0744-1.4648 11.136-0.5686 7.3626-0.5634 7.3828 1.7495 6.6954 1.2759-0.3792 6.7553-1.345 12.176-2.1461 6.6079-0.9766 10.69-2.1122 12.385-3.4454 2.7352-2.1516 5.2586-2.611 5.2586-0.9574 0 0.5672-0.7875 1.2972-1.75 1.6221s-3.4971 1.3233-5.6325 2.2186l-3.8825 1.6279 3.8825 0.7268c2.1354 0.3997 6.47 0.468 9.6325 0.1518 3.8584-0.3859 5.75-0.2137 5.75 0.5232 0 1.4224 0.6007 1.3899-21.358 1.1535-15.27-0.1644-18.774 0.049-18.416 1.1208 0.3409 1.0208 4.4025 1.3656 17.74 1.5062 17.103 0.1802 21.382 0.9904 17.161 3.2492-2.1737 1.1634-7.4702 0.4314-6.6368-0.9172 0.2626-0.4248-1.878-0.6771-4.7569-0.5607-2.8788 0.1163-9.3475 0.2869-14.375 0.379l-9.1406 0.1674-0.4675 3.75c-0.2571 2.0625-0.3551 3.8887-0.2178 4.0582 0.3403 0.4202 20.38 1.4301 42.466 2.1401 3.0265 0.097 3.2464 0.2598 1.6257 1.2013-1.2086 0.7021-4.9381 0.8604-10.5 0.4455-4.7441-0.3538-12.226-0.6754-16.626-0.7146-4.4-0.039-9.9065-0.4191-12.237-0.8443-3.2013-0.5841-4.5297-0.42-5.4357 0.6716-1.7689 2.1314 0.612 3.2585 6.9225 3.2769 3.2099 0.01 5.25 0.452 5.25 1.1391 0 0.74744-1.7971 0.97484-5.3656 0.67894l-5.3655-0.44504-0.6038 7.8296c-0.3321 4.3063-1.0518 8.6667-1.5993 9.6897s-0.7863 2.0692-0.5307 2.3248c0.7751 0.775 32.21 0.9739 38.077 0.2409zm-35.62-3.36c2.5281-1.4753 8.2612-1.6813 8.7342-0.3139 0.3114 0.9001-1.0605 1.2415-4.9009 1.2196-3.5365-0.02-4.828-0.3253-3.8333-0.9057zm24.25-5.7924c2.0625-0.2157 5.4375-0.2157 7.5 0 2.0625 0.2158 0.375 0.3923-3.75 0.3923s-5.8125-0.1765-3.75-0.3923zm13.512 0.021c1.2439-0.2392 3.0439-0.2301 4 0.02 0.9561 0.2503-0.062 0.446-2.2617 0.4349-2.2-0.011-2.9822-0.2159-1.7383-0.4551zm-35.012-1.9984c1.2375-0.2384 3.2625-0.2384 4.5 0 1.2375 0.2383 0.225 0.4333-2.25 0.4333s-3.4875-0.195-2.25-0.4333zm18.25-7.2943c-4.9946-0.2938-7.9744-0.8399-7.2254-1.3242 1.1083-0.71674 28.172 0.087 29.057 0.8631 0.7158 0.6276-13.792 0.934-21.831 0.4611zm-16.5-12.108c-2.2-0.3345 3.0875-0.672 11.75-0.75s15.75 0.2042 15.75 0.6271c0 0.9069-21.705 1.0038-27.5 0.1229zm36.75-4.5812c0.9625-0.2516 2.5375-0.2516 3.5 0 0.9625 0.2515 0.175 0.4573-1.75 0.4573s-2.7125-0.2058-1.75-0.4573zm-5.25-9.3107c-1.1352-0.7337-0.6954-0.9731 1.809-0.9847 1.9546-0.01 3.0561 0.394 2.691 0.9847-0.7764 1.2562-2.5561 1.2562-4.5 0zm6-0.9712c0-0.4312 0.675-1.3441 1.5-2.0288 2.5342-2.1032 1.6889-3.6236-2.75-4.9462-8.7319-2.6016-8.6886-2.5486-3.9571-4.8373 5.0468-2.4411 10.207-3.7253 10.207-2.5401 0 0.4594-1.443 1.4741-3.2068 2.2548l-3.2067 1.4195 3.4567 1.1575c2.6586 0.8903 3.5312 1.7875 3.7791 3.8852 0.1772 1.5001-0.175 3.3267-0.7828 4.059-1.288 1.5519-5.0395 2.7254-5.0395 1.5764zm-36.333-4.6955c-2.05-2.05-0.2196-3.2219 6.0833-3.8949 3.7125-0.3965 8.325-1.2807 10.25-1.9649l3.5-1.2441-2.8523-0.7488c-1.5688-0.4118-5.8438-0.4746-9.5-0.1395-7.4113 0.6793-10.254-0.1784-7.6772-2.3167 1.0398-0.8629 5.0494-1.3364 11.944-1.4106 8.8982-0.096 10.678 0.1599 12.482 1.7922 1.1571 1.0472 2.1003 2.3967 2.096 2.999-0.01 1.4595-4.7483 3.595-7.9762 3.595-1.4219 0-5.146 0.9-8.2757 2-5.9039 2.0751-8.9312 2.4757-10.074 1.3333zm44.963-15.232c0.5386-2.6931 0.2683-3.1922-2.2589-4.1706-1.579-0.6113-5.4344-1.1833-8.5677-1.2712-6.7791-0.1901-6.1284-1.7299 1.0215-2.4169 6.7537-0.6489 11.994 1.1857 12.823 4.4896 0.6699 2.6689-0.4268 5.3606-2.4602 6.0384-0.806 0.2687-0.9794-0.5612-0.5578-2.6693zm-37.402-3.2857c0.2172-0.6513 3.0672-2.6453 6.3334-4.4311 7.7736-4.2502 8.7121-5.1737 8.1652-8.0345-0.6446-3.3724 1.072-4.0102 2.2753-0.84535 1.3563 3.5674 1.3382 3.6487-1.4916 6.7005-1.3692 1.4767-2.2567 3.292-1.9719 4.0339 0.3704 0.9653-1.1426 1.6919-5.3206 2.5548-7.285 1.5047-8.4852 1.508-7.9898 0.022zm-3.6776-15.471c-0.7767-3.0946 0.571-4.3069 4.8135-4.3296 1.5751-0.008 4.6171-1.0007 6.7601-2.2052 2.6389-1.4831 4.2243-1.8619 4.9125-1.1737 0.6882 0.68822-0.2796 1.637-2.9987 2.9398-2.2082 1.058-4.02 2.4532-4.0263 3.1004-0.012 1.2307-5.4175 4.3232-7.5567 4.3232-0.6809 0-1.5379-1.1948-1.9044-2.6551zm10.101-14.58c-0.6335-0.40408-0.7018-0.75883-0.1518-0.78834 13.271-0.71203 19.5-0.68499 19.5 0.0847 0 0.5161-0.7875 0.95464-1.75 0.97453-0.9625 0.0199-5.0567 0.1324-9.0982 0.25-4.0414 0.11761-7.8664-0.11678-8.5-0.52086zm21.316-6.543c-2.9059-3.9348-4.0985-4.7733-7.1516-5.0282-3.8843-0.3242-7.7117-3.1942-4.2597-3.1942 1.6743 0 6.1733 1.2322 10.969 3.0044 2.6309 0.97213 6.2724 7.5972 4.9195 8.9501-0.6535 0.65353-2.1758-0.61529-4.4776-3.7322zm49.03 103.77c0-0.55-0.45-1-1-1s-1 0.45-1 1 0.45 1 1 1 1-0.45 1-1zm56.062-0.5c0-0.55-1.139-1.1424-2.5311-1.3164-1.8039-0.2256-2.5311 0.1526-2.5311 1.3164 0 1.1637 0.7272 1.5419 2.5311 1.3164 1.3921-0.174 2.5311-0.7664 2.5311-1.3164zm-35.379-1.6875c-0.3192-0.7978-0.5562-0.5608-0.6042 0.6042-0.043 1.0541 0.193 1.6447 0.5253 1.3125 0.3323-0.3323 0.3678-1.1948 0.079-1.9167zm-55.156-1.7688c-0.2909-0.4708-1.4285-0.6207-2.528-0.3332-2.0288 0.5305-2.5114 1.4437-1.3675 2.5876 0.8926 0.8927 4.537-1.2164 3.8955-2.2544zm27.281 1.8813c-0.197-0.5913-0.7858-1.075-1.3083-1.075s-1.1113 0.4837-1.3083 1.075c-0.1971 0.5912 0.3916 1.075 1.3083 1.075s1.5054-0.4838 1.3083-1.075zm23.999-1.4515c-0.3079-0.3079-0.8671 0.2471-1.2426 1.2334-0.5427 1.4252-0.4278 1.54 0.5598 0.5598 0.6834-0.6784 0.9907-1.4853 0.6828-1.7932zm-42.8 0.53c0-0.55-0.4766-1-1.059-1-0.5825 0-0.7809 0.45-0.441 1s0.8165 1 1.059 1c0.2426 0 0.441-0.45 0.441-1zm10.457 0.069c1.0217-1.6531-1.1052-2.0485-3.06-0.5689-1.8349 1.389-1.8253 1.4372 0.2937 1.468 1.205 0.017 2.4499-0.3871 2.7663-0.8991zm18.511-5.4416c0.017-0.4798-0.6432-0.3122-1.4682 0.3725s-1.5 1.9508-1.5 2.8136c0 1.2558 0.2929 1.1815 1.4682-0.3725 0.8075-1.0676 1.4825-2.3337 1.5-2.8136zm25.827-4.7217 0.2949-5.5747-4.9248-0.064c-4.3596-0.057-4.8678 0.15384-4.4283 1.8344 0.2731 1.0442 0.8074 1.8985 1.1874 1.8985s1.4959 1.8246 2.4798 4.0547c2.6445 5.9937 5.01 5.0508 5.391-2.1489zm27.446 2.2427c0.6863-2.6484 0.524-3.5996-0.7761-4.5503-0.9041-0.6611-1.4912-2.019-1.3045-3.0175 0.3602-1.927-2.5772-4.4975-3.773-3.3018-0.3895 0.3895-0.186 2.4508 0.4521 4.5807 0.6381 2.1298 1.1602 5.3157 1.1602 7.0797 0 4.3735 3.0505 3.8047 4.2413-0.7908zm-62.25 1.98c0-0.4826-0.7079-1.465-1.5731-2.1831-0.8652-0.718-2.4493-3.0231-3.5203-5.1224s-2.3795-3.8169-2.9079-3.8169c-1.065 0-1.9594 2.9318-2.2851 7.4901-0.192 2.6882 0.1397 3.0535 3.2864 3.6183 5.3834 0.9664 7 0.9696 7 0.014zm24-3.0634c0-0.5175-0.45-1.2191-1-1.559s-1 0.083-1 0.941c0 0.8574 0.45 1.559 1 1.559s1-0.4235 1-0.941zm-9.75-4.1116c3.6219-1.0058 4.4673-1.8968 3.0985-3.2656-0.3583-0.3583-0.8335-3.8933-1.056-7.8555-0.5137-9.1505-1.1161-10.165-6.191-10.426-3.2093-0.1649-4.1182 0.1493-4.1785 1.4444-0.042 0.9104-0.2632 3.0052-0.4909 4.6552-1.2299 8.9144-1.5683 13.703-1.0616 15.023 0.6626 1.7267 4.5832 1.8951 9.8795 0.4242zm28.764-9.4639c0.6922-0.8341 2.4348-1.3966 3.8724-1.25 2.5726 0.2623 2.6087 0.1781 2.282-5.3224-0.1826-3.0739 0.1845-7.5068 0.8157-9.8509 1.3192-4.8993 0.7672-6.0103-2.0974-4.2213-1.3063 0.8157-3.5431 1.0352-6.3149 0.6195l-4.2922-0.6436-0.6964 6.1555c-0.6273 5.5446-0.399 7.2646 1.9617 14.78 0.5385 1.7144 2.9441 1.5709 4.4691-0.2665zm-20.578-4.2335c-0.4326-2.0625-0.7082-5.1-0.6125-6.75 0.2957-5.0941-1.8179-13.5-3.3944-13.5-1.7874 0-1.773 1.7124 0.088 10.5 0.8155 3.8498 1.4826 8.1623 1.4826 9.5833 0 2.713 0.7003 3.9171 2.278 3.9171 0.5647 0 0.6283-1.5081 0.1581-3.75zm130.57 0.61c0-1.7732-0.2468-1.9176-1.5-0.8775-0.825 0.6847-1.5 1.6398-1.5 2.1224 0 0.4827 0.675 0.8776 1.5 0.8776 0.8622 0 1.5-0.9025 1.5-2.1225zm-99-3.4365c0-0.7926-0.45-1.441-1-1.441s-1 0.9265-1 2.059 0.45 1.7809 1 1.441 1-1.2665 1-2.059zm-52.71-0.4424c0.2879-1.1008 0.1154-1.7492-0.3834-1.441-0.4987 0.3082-0.9067 1.2089-0.9067 2.0014 0 2.0698 0.6795 1.7746 1.2901-0.5604zm29.531-10.709c1.7493-3.5287 0.7403-5.9781-1.1457-2.7812-2.3618 4.0033-4.6838 10.668-4.0654 11.669 0.3493 0.5652 1.3066-0.481 2.1273-2.3249 0.8207-1.8438 2.2084-4.7972 3.0838-6.5629zm23.079 5.9605c0.9702-1.8646 0.9077-2.25-0.3645-2.25-0.9965 0-1.5352 0.9358-1.5352 2.6666 0 2.9317 0.178 2.8927 1.8997-0.4166zm94.907 0.2235c-0.3079-0.3079-0.8671 0.2471-1.2426 1.2334-0.5427 1.4251-0.4278 1.54 0.5598 0.5598 0.6834-0.6784 0.9907-1.4853 0.6828-1.7932zm-146.63-6.9706c1.553-3.4085-0.4011-9.7446-3.8395-12.449-1.436-1.1295-2.9588-2.0536-3.3841-2.0536-1.0771 0-0.5648 12.142 0.5949 14.103 0.87 1.4713 2.7953 2.6208 4.7195 2.8177 0.4243 0.043 1.2835-1.0447 1.9092-2.4181zm53.82-1.94c0-0.7925-0.45-1.7191-1-2.059s-1 0.3085-1 1.441c0 1.1324 0.45 2.059 1 2.059s1-0.6485 1-1.441zm-14.5-4.559c0.3399-0.55 0.1415-1-0.441-1-0.5824 0-1.059 0.45-1.059 1s0.1984 1 0.441 1c0.2425 0 0.7191-0.45 1.059-1zm-8.9188-6.25c-1.8353-12.403-1.5785-11.75-4.6211-11.75-1.5565 0-4.0023 0.4457-5.4352 0.9905-2.2434 0.8529-2.4531 1.275-1.5097 3.0378 0.6026 1.126 0.805 2.9627 0.4499 4.0816-0.9319 2.9361 0.2532 6.6697 2.2856 7.2009 0.9621 0.2514 3.4841 0.5094 5.6043 0.5732l3.8551 0.116-0.6289-4.25zm13.539-4.9865c1.0935-2.1575 1.1309-3.7635 0.088-3.7635-0.4359 0-1.4259 2.1375-2.2 4.75-2.0924 7.0617-2.1913 8.1449-0.3881 4.25 0.8913-1.925 2.0165-4.2814 2.5006-5.2365zm11.108 4.2573c-0.3291-2.906-0.7666-3.4243-2.1619-2.562-0.5866 0.3626-1.0665 1.7906-1.0665 3.1735 0 1.8667 0.4508 2.4205 1.75 2.15 1.1814-0.2459 1.6618-1.1432 1.4784-2.7615zm-39.627-1.5674c0.5733-2.2842-0.04-4.4371-0.9603-3.3701-1.0141 1.176-1.558 5.9167-0.6788 5.9167 0.55 0 1.2876-1.146 1.6391-2.5466zm25.684-9.7197c-1.2709-2.2993-5.3222 5.5451-5.2362 10.138 0.039 2.0811 0.633 1.3795 2.8545-3.3721 1.5429-3.3 2.6147-6.3449 2.3817-6.7663zm-32.723 6.0374c0.237-0.2371-0.253-2.7344-1.0891-5.5497-1.0476-3.5276-2.4632-5.7903-4.5542-7.2792-1.6687-1.1882-3.3018-1.8927-3.6291-1.5654-0.9311 0.9311-0.529 6.6966 0.7976 11.435 1.1635 4.1559 1.3306 4.2951 4.6254 3.8511 1.8801-0.2534 3.6123-0.6546 3.8494-0.8917zm-15.907-3.264c-0.9892-2.1326-2.6556-3.433-2.6556-2.0722 0 1.7436 2.172 5.5768 2.9037 5.1246 0.5236-0.3236 0.4186-1.6149-0.2481-3.0524zm103.31 1.4181c9.0786-1.1742 15.031-2.7051 15.031-3.866 0-1.1823-5.6535-3.0592-9.215-3.0592-1.604 0-3.8994-0.5285-5.1007-1.1745-1.2014-0.6459-6.0093-1.2087-10.684-1.2507-4.9449-0.044-8.5-0.4942-8.5-1.0756 0-1.5545 14.41-3.0367 16.547-1.7021 0.9745 0.6086 3.3877 0.8443 5.3625 0.5239 2.3064-0.3743 3.5907-0.1874 3.5907 0.5224 0 1.7257 5.5269 4.1566 9.4503 4.1566 3.8793 0 4.046-0.2042 2.5097-3.0748-0.7682-1.4353-1.6805-1.7825-3.4907-1.3282-1.7429 0.4375-2.6317 0.1433-3.0776-1.0187-0.9751-2.541-4.3182-3.8608-10.873-4.2923-3.3104-0.21794-7.1439-0.79498-8.5189-1.2823s-6.1-1.025-10.5-1.1949c-7.5306-0.29071-7.9797-0.19147-7.6544 1.6912 0.1901 1.1 0.3653 5.6916 0.3895 10.204 0.036 6.6568 0.3475 8.2919 1.6544 8.6721 1.9329 0.5624 12.794-0.1202 23.079-1.4504zm-42.958-1.9459c1.2139-2.2682 0.5641-3.9793-1.5111-3.9793-1.9041 0-2.507 1.2572-1.8351 3.8264 0.7108 2.7184 1.943 2.7747 3.3462 0.1529zm-63.01-11.659c-1.1653-2.1011-1.7907-2.9202-1.3898-1.8202 0.4008 1.1 0.9414 4.025 1.2012 6.5 0.4424 4.2147 0.5305 4.3301 1.3898 1.8202 0.7103-2.0747 0.439-3.5424-1.2012-6.5zm52.01 3.02c0-0.3642-0.7678-3.0981-1.7063-6.0753-2.0312-6.4437-4.0099-7.8414-8.8427-6.2465-4.2628 1.4069-4.5147 3.9541-0.915 9.2517 2.2923 3.3734 2.9652 3.7322 7 3.7322 2.4552 0 4.464-0.298 4.464-0.6621zm-31.024-1.5879c-0.066-3.4655-2.0263-9.1986-3.4098-9.9729-0.8615-0.48209-1.5663-1.8312-1.5663-2.9981 0-2.2308-2.6279-5.779-4.28-5.779-0.5335 0-0.7196 1.2519-0.4136 2.782 0.5828 2.9141 6.0258 15.217 7.2927 16.484 1.1405 1.1405 2.4034 0.8665 2.377-0.5157zm-26.314-3c-0.2774-0.6875-0.5044-0.125-0.5044 1.25s0.227 1.9375 0.5044 1.25 0.2774-1.8125 0-2.5zm126.12-3.5c-0.6446-1.5125-1.6915-3.425-2.3266-4.25-0.635-0.825-1.4125-2.2319-1.7278-3.1264-0.3984-1.1306-1.3593-1.4761-3.152-1.1334-1.5972 0.30534-2.5788 0.0423-2.5788-0.69099 0-0.72889 0.7687-0.93998 2-0.54919 2.2081 0.70081 2.4575-0.16638 1.0858-3.7743-0.7435-1.9557-1.4639-2.3238-3.8591-1.9723-2.3458 0.34429-3.0562 0.006-3.4922-1.6606-0.5188-1.984-1.2021-2.0928-13.141-2.0928-7.7291 0-12.594-0.38627-12.594-1 0-0.55 1.4625-1.0131 3.25-1.0291s6.2379-0.84535 9.8899-1.843c3.6519-0.99762 8.0394-1.6084 9.75-1.3574 3.2593 0.47837 4.0601-0.73721 1.7491-2.6552-1.0243-0.85014-2.2952-0.73913-5.1384 0.44883-2.8407 1.1869-7.084 1.5588-17.111 1.4994-14.977-0.0886-14.551-0.41686-9.4889 7.3197l2.5412 3.8834 13.529-0.43807c7.4408-0.24094 12.49-0.26626 11.221-0.0563-2.8594 0.47308-2.2911 2.7572 0.6588 2.6482 1.1818-0.0437 2.1488 0.29383 2.1488 0.75 0 1.0042 0.2713 1.0123-9-0.26833-10.266-1.418-17.958-1.7801-18.519-0.87185-0.2574 0.41641 0.2101 2.3799 1.0389 4.3634 1.3053 3.1242 1.9546 3.6062 4.8568 3.6062 1.8426 0 5.774 0.49906 8.7366 1.109 2.9626 0.60996 6.2865 1.0598 7.3865 0.99961 2.4286-0.13286 15.411 2.8306 17.5 3.9948 0.825 0.45969 2.5029 0.84948 3.7286 0.8662 2.0506 0.028 2.1349-0.18918 1.0566-2.7196zm-9.5352-3.5494c1.5125-0.59767 2.75-1.4498 2.75-1.8936 0-0.44383 0.45-0.80696 1-0.80696s1 0.9 1 2c0 1.6634-0.6312 1.9821-3.75 1.8936-3.7447-0.10623-3.7461-0.10792-1-1.193zm-3.7911-5.7671c-0.3625-0.58659-0.4191-1.3066-0.1256-1.6001 0.7164-0.71631 2.6667 0.54583 2.6667 1.7257 0 1.278-1.7264 1.1927-2.5411-0.12555zm-108.78 7.879c-0.3192-0.79773-0.5562-0.56078-0.6042 0.60417-0.043 1.0542 0.193 1.6448 0.5253 1.3125 0.3323-0.33229 0.3678-1.1948 0.079-1.9167zm-1.9385-5.5463c0.212-0.63612-0.4008-0.91504-1.4375-0.65427-1.3606 0.34225-2.2389-0.58358-3.5549-3.7475-1.7153-4.1238-3.5445-4.936-2.3023-1.0222 1.6196 5.103 6.2533 8.5483 7.2947 5.424zm20.518-25.282c3.9805-1.1085 11.915-2.3059 17.633-2.6609 9.1833-0.57008 10.544-0.44242 11.668 1.0946 1.0512 1.4376 1.6525 1.5364 3.4604 0.56887 1.5429-0.82574 5.548-0.96113 13.582-0.45915 8.102 0.50624 11.394 0.3916 11.394-0.39678 0-0.60978-1.0125-1.0995-2.25-1.0882s-3.6-0.20481-5.25-0.48014c-1.65-0.27534-6.9375-1.0111-11.75-1.635-6.2821-0.81441-8.75-1.5283-8.75-2.5311 0-1.7682 1.4229-1.7563 7.5685 0.0637 5.8641 1.7366 8.0107 1.7168 15.932-0.14723 11.191-2.6336 12.643-3.3014 12.307-5.6596-0.3673-2.5773-5.2699-3.7701-25.307-6.1569-14.04-1.6725-16.774-2.2446-16.081-3.3658 0.2464-0.39877 4.6405-0.3321 9.7645 0.14817 14.892 1.3958 32.816-0.39026 32.816-3.27 0-1.5215-3.2513-2.0135-17.62-2.6664-7.9507-0.36127-14.66-0.98684-14.909-1.3902-0.8186-1.3245 5.9123-1.9147 12.029-1.0548 3.3 0.46393 6.9 0.48023 8 0.0362 1.1-0.44401 1.4375-0.83582 0.75-0.87068-2.2747-0.11535-1.2962-2.835 1.25-3.474 5.6955-1.4295 0.5627-3.5573-12.5-5.1818-3.8564-0.47959-4.9135-0.89302-3.5374-1.3834 1.862-0.66361 1.8364-0.77927-0.5-2.2577-1.3544-0.85702-3.5876-1.8915-4.9626-2.2988s-3.85-1.8299-5.5-3.1613-5.7959-4.4069-9.2131-6.8343c-4.3321-3.0774-7.107-6.0118-9.1662-9.6928-5.4937-9.8208-8.6176-14.741-9.3707-14.76-1.0056-0.0253-0.9675-5.0189 0.038-5.0189 0.4335 0 2.4809 2.025 4.5498 4.5 2.0688 2.475 4.1891 4.5 4.7117 4.5 1.6456 0 1.0331-2.9172-1.0497-5-2.0126-2.0126-2.8819-7.6631-1-6.5 0.55 0.33992 1 1.1678 1 1.8398 0 0.67196 1.3754 1.7409 3.0564 2.3754l3.0565 1.1537-0.3065-3.6844c-0.2389-2.873-0.7469-3.7069-2.3064-3.7864-1.1-0.0561-2.2931-0.16857-2.6513-0.25-0.3581-0.0814 0.7006-1.5952 2.3528-3.3638 1.8403-1.9701 2.5429-3.3694 1.8137-3.6125-0.6546-0.21821-1.6909 0.10387-2.3027 0.71575-0.6119 0.61192-2.3725 1.1126-3.9125 1.1126-4.1362 0-3.5133-2.5955 1.2-5 2.2-1.1224 4-2.4815 4-3.0203 0-1.3756-1.201-1.225-4.8846 0.61264-1.7555 0.87577-3.8497 1.3399-4.6536 1.0314-2.7803-1.0669-1.3948-3.1324 3.5618-5.31 6.1524-2.7029 6.526-4.5673 0.8278-4.1312-5.0296 0.3849-6.2207-1.5095-1.8968-3.0168 4.3805-1.5271 3.7753-3.0733-0.9546-2.4389-4.8378 0.64889-5.3429-0.98101-1-3.2268 4.3992-2.2749 3.7213-3.5606-1.5-2.845-3.7033 0.5076-4.5 0.33562-4.5-0.97141 0-1.2494 1.3309-1.6517 6.24-1.8859 4.8667-0.2322 6.3094-0.66266 6.5556-1.956 0.2189-1.1495-0.6219-1.8642-2.7399-2.3294-3.3782-0.74197-4.0134-2.1153-1.3057-2.8229 1.3563-0.35444 1.259-0.48343-0.4326-0.57333-2.2294-0.11849-3.9652-3.2588-2.8229-5.107 0.8599-1.3914 3.5055-1.2724 3.5055 0.15772 0 2.9612 1.3087-0.57403 1.6233-4.3849 0.541-6.5539 1.2756-8.7817 2.8958-8.7817 1.1355 0 1.4822 1.3409 1.4865 5.75 0.01 6.3894 1.2565 11.859 3.3726 14.753 1.2411 1.6973 1.4084 1.0235 1.5014-6.0462 0.1742-13.241 3.2402-31.892 6.2036-37.737 2.441-4.8147 2.5016-7.1382 0.1668-6.3966-0.9625 0.30571-4.675 1.3052-8.25 2.2211-12.757 3.2682-17.529 4.8934-19.564 6.6622-1.1354 0.98674-2.6309 1.7941-3.3233 1.7941-2.2297 0-0.7042-3.283 2.3878-5.1387 7.555-4.5342 9.4622-5.2764 16.5-6.4209 8.4511-1.3743 15.459-3.757 17.73-6.028 0.8401-0.84011 2.1962-1.2709 3.0135-0.95723 0.8173 0.31364 3.3468-0.29917 5.6211-1.3618 2.2742-1.0626 4.951-2.1902 5.9484-2.5057 0.9973-0.31551 1.5445-1.0086 1.216-1.5402-0.3286-0.53161 0.8941-2.6723 2.7171-4.7571 1.8229-2.0848 4.6314-5.8155 6.241-8.2905 3.1263-4.8069 8.2219-10.419 9.6468-10.625 0.4761-0.0687 1.2999-0.18125 1.8305-0.25 1.1375-0.14737 3.4055-4.088 2.7374-4.7562-0.2529-0.25292-3.9813 0.4625-8.2853 1.5898-5.4008 1.4146-10.692 2.0196-17.079 1.9525-8.931-0.0937-20.564 1.6704-30.703 4.6562-2.6757 0.78794-5.5359 1.4326-6.3561 1.4326s-3.1598 1.3215-5.1991 2.9367-4.9136 3.486-6.3874 4.1575c-4.6923 2.138-8.2939 10.144-9.0423 20.101-0.4684 6.232-1.2662 9.734-2.8159 12.36-1.5366 2.6043-2.1906 5.4414-2.2602 9.8044-0.054 3.3768-0.453 6.696-0.8868 7.3761-0.4339 0.68012-0.3239 2.9206 0.2444 4.9788 2.0952 7.588-3.5146 12.238-14.86 12.316-2.5146 0.0175-5.2514 0.58-6.0819 1.25-1.8969 1.5304-3.6565 7.6731-5.505 19.218-1.6441 10.268-4.1717 23.325-5.5293 28.562-0.5078 1.9591-1.383 8.2591-1.9447 14-0.5618 5.7409-1.4854 15.163-2.0523 20.938-1.39 14.157-4.5497 26.539-8.0846 31.68-1.5808 2.2991-2.8741 4.481-2.8741 4.8488 0 1.1545 6.0071 6.3385 8.1232 7.0101 1.2885 0.40893 1.8098 1.1931 1.4378 2.1625-0.4601 1.199-0.054 1.388 1.9184 0.89293 3.3122-0.8313 10.394 1.0186 19.153 5.0031 3.9227 1.7844 9.3227 3.5673 12 3.962 2.6773 0.39463 5.7678 1.0766 6.8678 1.5156 3.4491 1.3763 9.2624 0.99803 16.763-1.0907zm-49.234-18.62c-4.5209-3.2088-4.9947-4.0613-5.013-9.0201-0.018-4.8506 3.4222-11.964 6.128-12.672 1.0212-0.26706 3.4997 0.0187 5.5078 0.63499 3.0238 0.928 4.0344 1.9859 5.8817 6.1564 2.1465 4.8459 2.1691 5.2016 0.5989 9.4304-0.8974 2.417-2.3067 4.7096-3.1317 5.0946-0.825 0.38499-2.5064 1.2199-3.7364 1.8554-2.6606 1.3746-1.989 1.534-6.2353-1.48zm3.795-6.6975c0.218-1.1241-0.352-1.6671-1.75-1.6671-1.1403 0-2.0733 0.6-2.0733 1.3333 0 3.0628 3.2392 3.3456 3.8233 0.3338zm5.18-1.71c0-0.51754-0.675-0.94098-1.5-0.94098-1.5464 0-1.9867 1.18-0.8605 2.3062 0.7989 0.79893 2.3605-0.10419 2.3605-1.3652zm-7.6037-4.5312c0.6801-1.7723-0.019-3.4098-1.4553-3.4098-0.5176 0-0.941 1.125-0.941 2.5 0 2.7973 1.4593 3.3514 2.3963 0.90976zm6.5298-1.9988c-0.644-0.77603-1.5659-1.411-2.0485-1.411-1.3532 0-1.0381 2.7758 0.3724 3.2817 2.0027 0.71839 2.9487-0.33741 1.6761-1.8708zm64.07 3.08c-1.0748-1.2951-0.6476-1.4952 3.1276-1.4646 4.295 0.0348 4.3281 0.0607 1.8724 1.4646-3.1766 1.8159-3.4929 1.8159-5 0zm4.25-11.206c-1.2375-0.23836-2.25-0.85207-2.25-1.3638 0-1.3421 5.9101-1.0055 10 0.56955l3.5 1.3478-4.5-0.0601c-2.475-0.0331-5.5125-0.25512-6.75-0.49347zm-68.47-6.6219c-3.2099-2.9748-5.1677-8.8991-4.4343-13.419 0.5833-3.5945 2.5328-6.0483 6.4859-8.1639 2.9847-1.5974 6.8381 0.29971 9.9735 4.9101 1.9681 2.894 2.285 4.3285 1.8302 8.2853-1.1206 9.7511-7.9336 13.875-13.855 8.387zm2.8862-5.1723c0-0.825-0.375-1.5-0.8334-1.5-0.4583 0-0.8333 0.675-0.8333 1.5s0.375 1.5 0.8333 1.5c0.4584 0 0.8334-0.675 0.8334-1.5zm5.33-2.11c0-0.825-0.45-1.2219-1-0.88197-0.55 0.33992-1 1.293-1 2.118s0.45 1.2219 1 0.88197c0.55-0.33992 1-1.293 1-2.118zm-5.5567-4.6045c1.8937-2.7036 2.0303-5.7775 0.2567-5.7775-2.126 0-3.7 2.2121-3.7 5.2 0 3.3715 1.3301 3.5946 3.4433 0.57749zm5.56-2.29c0-0.825-0.1769-1.5-0.393-1.5-0.2162 0-0.652 0.675-0.9686 1.5s-0.1397 1.5 0.393 1.5 0.9686-0.675 0.9686-1.5zm-1.2434-23.701c-8.3148-2.2088-11.7-12.538-5.5965-17.077 3.3551-2.4949 8.9688-1.6838 12.452 1.799 3.1095 3.1095 3.4529 12.206 0.5596 14.824-2.0377 1.844-2.1546 1.8512-7.4147 0.45386zm-1.76-5.8c0-0.55-0.1984-1-0.441-1-0.2425 0-0.7191 0.45-1.059 1s-0.1415 1 0.441 1c0.5824 0 1.059-0.45 1.059-1zm6-0.58333c0-1.7659-2.1528-1.4584-2.7708 0.39583-0.2177 0.65312 0.3166 1.1875 1.1875 1.1875 0.8708 0 1.5833-0.7125 1.5833-1.5833zm-8.5-4.4167c0.3399-0.55 0.1415-1-0.441-1-0.5824 0-1.059 0.45-1.059 1s0.1984 1 0.441 1c0.2425 0 0.7191-0.45 1.059-1zm7.5-1.5314c0-1.5131-2.6365-3.1654-3.5667-2.2353-0.2642 0.26423-0.1966 1.2198 0.1501 2.1235 0.7957 2.0733 3.4166 2.159 3.4166 0.11175zm-2.5-16.669c-5.7441-3.273-7.0157-8.9082-3.5452-15.711 2.8441-5.5749 9.8103-6.915 14.587-2.8062 2.2246 1.9135 2.7384 3.3408 3.1791 8.8304 0.501 6.2412 0.3963 6.6497-2.2326 8.7176-3.0345 2.387-8.6967 2.8447-11.988 0.96916zm0.7676-11.884c-0.4144-1.5849-0.7478-1.7646-1.391-0.75-1.2319 1.9433-1.0653 2.8345 0.5298 2.8345 0.933 0 1.2229-0.70155 0.8612-2.0845zm18.218-33.763c0.209-6.8516 0.9753-9.6034 2.4249-8.7075 0.9294 0.5744 1.2426 8.9631 0.4781 12.806-0.3009 1.5125-1.1242 2.75-1.8295 2.75-0.9387 0-1.2264-1.8354-1.0735-6.848zm50.01-36.33c-1.65-0.47826-4.35-0.6416-6-0.36298s-3.6712 0.0828-4.4916-0.43525c-2.6101-1.648 0.4757-3.3602 6.8922-3.8243 5.1635-0.37349 5.9868-0.1879 6.3665 1.4351 0.2399 1.0252 0.2539 0.26812 0.031-1.6825-0.3034-2.6562 0.1119-4.0145 1.6545-5.4105 2.6166-2.3679 3.3708-1.5697 3.6888 3.9039 0.3405 5.8604-2.4315 8.0315-8.1414 6.3765zm12.213-7.813c-0.3618-1.3839 0.1268-2.85 1.3613-4.0845 1.9011-1.901 1.9258-1.9001 1.9258 0.0742 0 1.1-0.4766 2-1.059 2-0.5825 0-0.8372 0.35899-0.566 0.79775s0.1352 1.3768-0.3022 2.0845c-0.5761 0.93211-0.9509 0.69177-1.3599-0.87196zm24.241 202.99c0.4345 0 0.7428-1.8 0.6851-4-0.058-2.2-0.2429-4-0.4116-4s-2.1047 0.91725-4.3023 2.0383c-3.7918 1.9345-4.4907 3.9617-1.3658 3.9617 0.7926 0 1.441 0.72314 1.441 1.607 0 1.0545 0.5438 1.3983 1.5818 1 0.87-0.33385 1.9373-0.60699 2.3718-0.60699zm13.296-5.4613c5.1591-2.6265 4.7136-3.7456-0.75-1.884-2.6327 0.89704-4.5 2.1513-4.5 3.0226 0 0.81913 0.3375 1.3276 0.75 1.1299 0.4125-0.19769 2.4375-1.2185 4.5-2.2686zm-3.6671-7.4046c-0.5-0.82-5.58-0.38-5.58 0.47 0 0.21088 1.3766 0.38342 3.059 0.38342 1.6825 0 2.8182-0.38965 2.5239-0.86589zm-7.4329-5.6341c-0.1925-0.55-0.8675-0.82387-1.5-0.60859-0.6325 0.21527-1.9286 0.35641-2.8803 0.31363-0.9517-0.0428-2.0092 0.37344-2.35 0.92492-0.3847 0.62243 0.8404 0.88273 3.2303 0.68637 2.1175-0.17398 3.6925-0.76633 3.5-1.3163zm21.35-0.5c0.7892-1.2769-2.5241-1.2769-4.5 0-1.1732 0.7582-0.9138 0.97271 1.191 0.98469 1.48 0.008 2.9691-0.43469 3.309-0.98469zm-161.89-5.75c1.093-1.5125 2.5038-4.55 3.1353-6.75 1.1181-3.8959 4.5631-26.415 6.3486-41.5 1.0465-8.8407 2.4687-17.74 3.8354-24 1.5676-7.18 1.3567-8.8201-1.1804-9.1804-2.787-0.39581-2.9772-3.1656-0.25-3.6402 4.4832-0.7802 6.3342-7.1793 2.0766-7.1793-2.3668 0-2.3878-0.0711-0.9033-3.0469 0.8646-1.7332 1.2558-4.0993 0.9073-5.4879-0.3369-1.3426-0.059-3.3274 0.6175-4.4108 1.0487-1.6792 0.8672-2.356-1.23-4.5884-1.4775-1.5726-2.34-3.5357-2.1594-4.9143 0.3333-2.5433-2.2671-4.2153-3.5118-2.258-1.1638 1.8299-4.3924 10.758-5.318 14.706-0.4513 1.925-1.9568 7.9003-3.3455 13.279-1.9664 7.6158-2.6591 13.366-3.1317 26-0.7024 18.778-2.7898 36.586-5.6224 47.967-2.498 10.037-1.9322 13.034 2.9393 15.574 4.8679 2.5376 4.5262 2.5663 6.7925-0.5699zm157.25-3.395c1.1862-1.8995 1.1472-2.0712-0.3413-1.5-0.9244 0.35475-1.869 0.64499-2.099 0.64499s-0.4182 0.675-0.4182 1.5c0 2.1446 1.2995 1.8514 2.8585-0.64499zm-16.849-2.8727c1.4224-2.6578-1.3614-3.2816-6.6427-1.4886-2.4402 0.82847-5.2944 1.5063-6.3427 1.5063s-2.1707 0.42819-2.4941 0.95153c-0.5762 0.9322 10.638 1.9318 13.248 1.1808 0.7028-0.20221 1.707-1.1697 2.2317-2.15zm76.99-7.8c0-2.7825-8.5362-7.2138-10.983-5.7015-1.9073 1.1788 0.8658 4.5094 3.7684 4.5257 1.4931 0.008 3.3898 0.45153 4.2148 0.98469 1.8421 1.1905 3 1.2642 3 0.19113zm-97-12.691c0-1.0333 1.037-1.5 3.3333-1.5 4.4907 0 5.1033-0.9064 2.4915-3.6865-1.7921-1.9075-2.824-2.2166-5.6376-1.6888-2.6827 0.50326-3.3412 0.33982-2.9788-0.73928 0.4287-1.2762 2.32-1.5502 12.631-1.8296 3.2749-0.0887 4.3413 0.79993 3.634 3.0284-0.7369 2.3217 0.4689 2.4597 3.0856 0.35302 1.4411-1.1603 1.6047-1.7017 0.635-2.102-0.7184-0.29656-2.0994-1.3907-3.0691-2.4315-1.0202-1.0951-3.8401-2.1701-6.6938-2.5518-4.8506-0.6487-6.3854-1.63-6.4157-4.1019-0.021-1.7101 4.4583-1.5736 7.971 0.24292 2.9856 1.5439 6.3674 1.0683 5.7421-0.80759-0.1958-0.58753-1.7796-1.7696-3.5195-2.6268-3.8437-1.8936-4.1798-3.4773-0.5925-2.7915 1.6393 0.31336 3.2379-0.10994 4.2804-1.1334 2.4525-2.4077 6.7674-4.4591 7.9031-3.7573 0.5448 0.33671 1.2551-0.0772 1.5785-0.91991 0.6013-1.567 0.16-1.8427-4.6284-2.8919-1.5125-0.33142-2.75-1.0965-2.75-1.7002 0-0.60507 0.897-0.86301 1.999-0.57483 1.0995 0.28751 2.2195 0.16598 2.489-0.27006 0.9138-1.4786-1.9681-2.7702-7.738-3.468-3.7777-0.45684-5.75-1.1528-5.75-2.0288 0-1.0426 1.7999-1.2282 8.25-0.85073 5.9845 0.35018 7.8381 0.19112 6.75-0.57925-0.825-0.5841-2.7375-1.0689-4.25-1.0773-2.1596-0.012-2.7651-0.4984-2.8203-2.2653-0.057-1.8304-0.1971-1.9304-0.7502-0.53662-0.4191 1.056-1.1601 1.4167-1.9312 0.9401-1.577-0.97464 2.0155-5.1535 4.4304-5.1535 0.8804 0 2.1441-0.74301 2.8082-1.6511 0.9948-1.3605 1.7474-1.4629 4.2752-0.58165 1.6873 0.58821 3.3311 0.80622 3.6529 0.48446 1.2394-1.2395 0.4717-2.1177-2.4035-2.7492-3.7716-0.82838-4.8586-2.4682-2.1121-3.1865 3.3361-0.87241 2.4556-3.0902-2.1494-5.4142-2.3375-1.1796-5.259-2.6526-6.4922-3.2733-2.7853-1.4019-2.9435-3.6286-0.2578-3.6286 1.1 0 2-0.49213 2-1.0936 0-0.60149-0.9-1.329-2-1.6166-1.1-0.28766-2-0.92053-2-1.4064 0-1.6132 3.27-0.91517 7.5997 1.6222 4.671 2.7374 6.8759 1.8827 2.8815-1.117-2.4124-1.8116-3.3613-4.3886-1.6161-4.3886 0.4759 0 2.0094 0.9 3.4078 2 2.7581 2.1695 4.7271 2.5861 4.7271 1 0-0.55-0.4541-1-1.0091-1-1.4633 0-7.1108-5.6113-7.3606-7.3135-0.1168-0.79556-1.6564-3.0911-3.4213-5.1013-1.8566-2.1145-3.209-4.7534-3.209-6.2615 0-2.4552 0.2777-2.3078 4.7767 2.5348 4.1837 4.5032 8.0287 6.8258 7.0566 4.2625-0.6369-1.6796-7.7124-8.9859-9.7667-10.085-1.9269-1.0312-2.7772-3.9917-1.5103-5.2586 0.306-0.30596 2.8935 1.6869 5.75 4.4285 10.562 10.137 11.708 8.3679 2.1003-3.2448-3.7082-4.4822-7.6464-8.2338-9-8.5736-1.33-0.34-2.41-0.96-2.41-1.39 0-0.42916-1.575-1.0758-3.5-1.4369-3.3048-0.61999-3.5-0.8789-3.5-4.6427 0-4.8017 1.4573-5.6204 6.7088-3.7691 2.0851 0.73511 6.2662 1.349 9.2912 1.3642s7.8835 0.78677 10.797 1.7146c4.8429 1.5424 5.3496 1.5494 5.9125 0.0823 0.357-0.93027-0.087-2.1183-1.056-2.827-2.5805-1.8869-14.358-4.4086-22.398-4.7959-7.5552-0.36395-9.7144-1.1724-7.2309-2.7073 1.2445-0.76917 1.1778-1.117-0.4414-2.301-2.9149-2.1314-1.3612-4.6841 2.8507-4.6841 2.3908 0 3.8124-0.59081 4.4962-1.8685 0.55-1.0277 0.7523-2.1162 0.4496-2.4189-1.0372-1.0373-11.878 0.55027-13.526 1.9807-0.9056 0.78614-4.3648 1.8136-7.6872 2.2832-8.473 1.1976-10.592 2.54-5.3354 3.3805 2.5438 0.40677 4.6406 1.4781 5.6146 2.8686 3.0351 4.3332 1.5391 5.0488-2.7834 1.3313-2.3483-2.0196-3.2818-2.2718-5.4119-1.462-4.1279 1.5694-13.234 11.95-13.243 15.096 0 1.48-0.459 2.9701-1.011 3.3113-0.552 0.34116-0.7324 1.701-0.4009 3.022 0.3316 1.3209-0.1668 6.6762-1.1075 11.901-1.6459 9.1411-1.6589 12.541-0.1141 29.902 0.5227 5.8738-0.5211 10.528-2.657 11.848-0.8736 0.5399-0.8582 1.545 0.063 4.0914 0.6714 1.8566 1.2206 4.5657 1.2206 6.0202 0 2.4224 0.4249 2.7009 5.0578 3.3155 2.7818 0.36902 6.0281 1.4567 7.2141 2.417 1.8838 1.5255 2.0056 2.0767 0.9636 4.3635-1.2602 2.7659-5.207 3.5531-8.2306 1.6416-1.2819-0.81038-1.2105-1.1541 0.5-2.41 1.9431-1.4266 1.9189-1.4939-0.9273-2.5803-4.1747-1.5935-5.9483-0.6471-5.1025 2.7228 0.5067 2.019-0.056 4.1317-2.1439 8.0453l-2.8312 5.3073 2.6842 1.9808c1.4763 1.0894 3.1634 3.433 3.7492 5.2079 2.2922 6.9456 17.133 15.114 28.317 15.586 1.8294 0.0772 2.75-0.38618 2.75-1.384zm9.5648-28.395c-0.3043-0.49236 0.1047-1.1477 0.9089-1.4563 1.5627-0.59966 2.8973 0.64725 1.8325 1.7121-0.9041 0.90401-2.0932 0.79308-2.7414-0.25574zm-1.06-5.11c0.7811-1.2639 3.5443-1.2639 5.5 0 1.1135 0.71959 0.5185 0.97332-2.309 0.98469-2.288 0.009-3.5622-0.38402-3.191-0.98469zm-22.824-0.71502c-0.2707-0.43801-0.2561-2.0313 0.032-3.5407 0.3546-1.8548 1.1456-2.7443 2.4403-2.7443 1.9209 0 4.2154 3.9338 2.9967 5.1376-1.176 1.1616-4.9689 1.9572-5.4694 1.1474zm22.32-10.28c0-0.55 0.4766-1 1.059-1 0.5825 0 0.7809 0.45 0.441 1s-0.8165 1-1.059 1c-0.2426 0-0.441-0.45-0.441-1zm6.25-13.347c-1.7875-0.5864-3.25-1.6481-3.25-2.3594 0-0.71126 0.1877-1.2932 0.4171-1.2932 1.0282 0 9.5829 3.9854 9.5829 4.4645 0 0.777-3.0105 0.41491-6.75-0.81187zm2-20.315c-1.5251-0.61541-1.6708-3.3377-0.1786-3.3377 1.1244 0 3.9286 2.4473 3.9286 3.4286 0 0.67284-1.976 0.62497-3.75-0.0908zm81.07 70.271c0.9211-2.4005-2.5894-8.1358-4.8258-7.8841-1.0968 0.12345-4.4048-0.25594-7.3511-0.84309s-5.6865-0.68815-6.0892-0.22445c-0.4028 0.4637-0.3331 2.7308 0.1549 5.0379 0.8522 4.0299 1.0523 4.2098 5.0891 4.5753 9.627 0.87161 12.49 0.72619 13.022-0.66156zm-73.32-16.6c0-0.55-0.6484-1-1.441-1-0.7925 0-1.7191 0.45-2.059 1s0.3085 1 1.441 1c1.1324 0 2.059-0.45 2.059-1zm-169.79-12.25c0.8746-0.6875 1.9165-2.375 2.3153-3.75l0.7252-2.5-2.4386 2.25c-1.3413 1.2375-3.4773 2.25-4.7467 2.25-1.9382 0-2.1085 0.24036-1.0631 1.5 1.5169 1.8278 3.1038 1.904 5.2079 0.25zm-1.0366-6.405c2.4187-2.1889 2.3252-4.9819-0.1889-5.6394-3.6074-0.94336-6.3696 3.5072-3.7824 6.0944 1.5482 1.5482 1.7881 1.5208 3.9713-0.45499zm15.426-15.095c-0.6301-4.7892 0.6406-5.5825 2.6866-1.6774l1.348 2.5726 1.2881-4.3226c0.7085-2.3774 1.6913-5.3563 2.184-6.6196 0.4928-1.2634 0.8959-3.343 0.8959-4.6214 0-2.2531-0.2529-2.3211-8.25-2.2197-4.5375 0.0576-11.062-0.28943-14.5-0.77107-4.2018-0.58873-6.25-0.53684-6.25 0.15834 0 0.56872 1.0766 1.3042 2.3924 1.6345 1.3158 0.33025 4.6577 3.079 7.4263 6.1084 2.7687 3.0294 5.311 5.508 5.6495 5.508 1.441 0 4.6868 3.9402 4.0691 4.9397-0.3715 0.6011-1.0976 0.83204-1.6135 0.51321-1.5609-0.96472-2.1597 2.2378-0.8692 4.6492 1.1823 2.209 1.2403 2.2162 2.6553 0.32814 0.9857-1.3153 1.2685-3.2843 0.8875-6.1802zm-57.702-5.75c0.6429-2.5531 1.7175-4.5 2.4838-4.5 0.743 0 2.4259-0.84572 3.74-1.8794s3.2873-2.0523 4.3849-2.2637c1.3525-0.26046 1.9956-1.1812 1.9956-2.8569 0-3.6559-3.0542-3.693-7.5358-0.0915-2.1158 1.7003-4.1387 3.0915-4.4953 3.0915-1.3036 0-4.4029 4.5558-4.422 6.5-0.028 2.8796 1.0585 6.5 1.951 6.5 0.4206 0 1.2746-2.025 1.8978-4.5zm209.3-4.7c-0.6417-0.64167-1.4986-0.8347-1.9044-0.42896-0.4057 0.40574-0.089 1.1388 0.7044 1.629 1.8676 1.1542 2.7109 0.31091 1.2-1.2zm-211.2-5.8c0-0.55-0.4234-1-0.941-1-0.5175 0-1.2191 0.45-1.559 1s0.083 1 0.941 1c0.8574 0 1.559-0.45 1.559-1zm90.5-18c1.7515-0.66594 3.2539-0.66651 4.4962-0.002 1.2292 0.65785 3.5094 0.66583 6.6845 0.0234 2.6504-0.53627 6.5064-1.2309 8.5689-1.5436 3.3589-0.50927 3.75-0.87669 3.75-3.5232 0-3.061-1.6731-3.8816-3.7268-1.8279-1.4683 1.4684-6.2732 0.26247-6.2732-1.5744 0-3.5146 6.1321-6.0203 8.6271-3.5252 0.7029 0.70283 1.3798 0.25321 2.144-1.4241 1.6769-3.6803-0.5148-5.0395-6.512-4.0385-2.6175 0.43689-6.8547 0.67533-9.4159 0.52986-2.5613-0.14548-5.6894 0.28808-6.9513 0.96346-1.262 0.67538-5.4664 1.2974-9.3432 1.3823-7.039 0.15414-7.0491 0.15842-7.3213 3.1071-0.2491 2.6978-0.1514 2.7991 1.1317 1.1734 1.2625-1.5997 1.4668-1.6167 2.0226-0.16821 0.3401 0.88615 0.6356 2.8119 0.6568 4.2794 0.027 1.8652 1.0051 3.317 3.25 4.8238 3.7674 2.5288 4.6964 2.6808 8.2119 1.3442zm140.2-5.5776c0.3733-1.1401-3.7918-3.4223-6.2459-3.4223-1.4921 0-2.0156 3.104-0.7389 4.3807 1.0528 1.0528 6.5743 0.29518 6.9848-0.95842zm-8.0376-12.922c-2.583-2.475-5.6151-4.5-6.7379-4.5-2.245 0-2.0788 0.53862 1.775 5.75 1.9433 2.6278 3.0979 3.25 6.0314 3.25h3.628l-4.6965-4.5zm-15.537-3.7667c-0.9876-0.98026-1.1025-0.8654-0.5598 0.5598 0.3755 0.98622 0.9347 1.5412 1.2426 1.2333 0.3079-0.30789 0.0006-1.1148-0.6828-1.7931zm-134.69-0.34827c1.2269-0.47079 0.7781-1.0568-1.9146-2.5-1.9344-1.0368-4.5312-1.8987-5.7707-1.9155-2.0785-0.028-2.1111-0.11328-0.4193-1.0968 1.7511-1.0181 1.739-1.1331-0.2687-2.5393-1.1565-0.81009-2.8819-1.2687-3.8342-1.0192-1.2803 0.33552-1.1452 0.48396 0.5186 0.56974 2.3602 0.12168 2.9953 1.5374 1.1902 2.653-1.4519 0.89729 1.9655 3.3906 4.7028 3.4312 1.1787 0.0175 2.402 0.7068 2.7186 1.5318 0.6487 1.6903 0.8375 1.7446 3.0773 0.88506zm34.29-0.98923c-0.3323-0.33229-1.1948-0.36781-1.9167-0.0789-0.7977 0.31922-0.5608 0.55618 0.6042 0.60416 1.0541 0.0434 1.6448-0.19293 1.3125-0.52522zm6.5208-0.0581c-0.6875-0.27741-1.8125-0.27741-2.5 0s-0.125 0.50439 1.25 0.50439 1.9375-0.22698 1.25-0.50439zm-14.322-2.9011c1.1797-0.42149 1.1256-0.80762-0.3111-2.2233-1.5805-1.5575-1.8467-1.5689-2.9275-0.12549-1.2215 1.6313-4.1513 1.4695-3.1361-0.17318 0.3109-0.50303-1.2613-0.9146-3.4938-0.9146-2.2324 0-4.059 0.45-4.059 1s0.9 1 2 1c1.2959 0 2 0.66667 2 1.8937 0 1.7056 0.4222 1.8023 4.25 0.97333 2.3375-0.5062 4.8924-1.1499 5.6775-1.4304zm-20.92 0.57c0-0.55-0.45-1-1-1s-1 0.45-1 1 0.45 1 1 1 1-0.45 1-1zm-174-3.08c2.475-1.6126 9.539-5.4072 15.698-8.4325 6.1588-3.0253 11.452-5.9109 11.762-6.4125s1.9506-1.2166 3.6457-1.5889c1.6952-0.37232 3.9819-1.7118 5.0817-2.9766s4.0952-3.0868 6.6564-4.0487c2.5613-0.96194 5.8637-2.5909 7.3388-3.6199 1.475-1.029 6.5952-2.5968 11.378-3.484 6.8195-1.265 8.8012-2.0138 9.1818-3.4692 0.7218-2.7602 2.0677-1.3337 1.5073 1.5976-0.3961 2.0724-1.0877 2.5462-3.8659 2.6489-1.8609 0.0687-3.8334 0.2375-4.3834 0.375s-1.2408 0.30625-1.5352 0.375c-0.2943 0.0687-0.035 1.0599 0.5767 2.2026 0.7656 1.4304 1.6331 1.8524 2.7852 1.3547 0.9203-0.39758 4.5462-0.62559 8.0575-0.5067 5.2916 0.17918 6.2866-0.0381 5.8141-1.2694-0.4843-1.2619 0.6838-1.4178 7.7591-1.0356 6.7221 0.36319 8.6375 0.14167 9.9272-1.1481 1.3983-1.3983 1.8528-1.4197 3.6357-0.1709 2.9528 2.0683 15.671 1.0641 18.37-1.4504 1.0928-1.0182 2.3522-1.8512 2.7985-1.8512s0.8114-1.1542 0.8114-2.5648c0-2.4861 0.1918-2.5629 6.25-2.5031 3.4375 0.034 8.4053-0.20858 11.04-0.53901 2.6343-0.33043 6.4593-0.27829 8.5 0.11588 3.2461 0.627 3.4444 0.81785 1.5853 1.5254-2.7439 1.0443-3.6724 6.4424-1.7818 10.359 1.2462 2.5819 1.2087 3.0327-0.3483 4.1864-1.4577 1.0801-2.2645 0.98878-4.9015-0.55463-3.1111-1.8209-3.1643-1.8179-3.6939 0.20724-0.4734 1.8103-1.0681 1.982-4.9977 1.4434-3.2822-0.44986-4.7822-0.22364-5.6786 0.8564-1.2439 1.4988-5.1115 1.9961-6.2979 0.80976-0.3619-0.3619-0.1567-1.2619 0.4558-2 0.8387-1.0106 0.7748-1.3626-0.2587-1.4253-0.7548-0.0458-2.4974-0.2866-3.8724-0.53504-6.8231-1.2328-15-1.5443-15-0.57145 0 0.57374 0.7875 1.249 1.75 1.5005 0.9625 0.25153-1.4 0.45733-5.25 0.45733s-6.2125-0.2058-5.25-0.45733c2.615-0.68336 2.1131-2.0043-1-2.6322-1.7654-0.35609-3.1481-0.0389-3.862 0.88587-0.952 1.2332-1.4785 1.1523-3.6578-0.5619-3.2072-2.5229-3.3866-2.5074-4.1048 0.35415-0.5635 2.2451-1.1245 2.39-11.858 3.063-6.1968 0.38852-11.694 1.128-12.217 1.6434-0.5225 0.51534-1.7879 0.93699-2.8121 0.93699-2.1181 0-11.725 2.9298-13.238 4.0371-0.55 0.40256-2.5684 1.0679-4.4853 1.4786-4.5999 0.98537-8.2431 3.4468-7.5963 5.1322 0.6403 1.6687 0.1112 1.6998-2.3865 0.13993-2.2636-1.4136-4.1875-0.15769-2.0029 1.3076 1.7168 1.1515 6.2682 0.60774 13.971-1.6692 3.025-0.89417 8.425-1.6934 12-1.776s6.9591-0.45039 7.5202-0.81723c1.2834-0.8391 9.1702-0.47593 10.112 0.46562 1.1421 1.1421 5.368 0.79859 5.368-0.43632 0-0.78917 1.6664-0.94183 5.44-0.49832 3.4066 0.40038 5.6825 0.24681 6.089-0.41088 0.4432-0.71722 1.1038-0.67284 2.0832 0.13996 0.8195 0.68016 5.1738 1.2745 10.161 1.3868 4.7998 0.10814 10.024 0.73086 11.609 1.3838 3.7003 1.5243 6.8982 0.59492 6.1428-1.7852-0.4774-1.5042 0.1609-1.7856 4.3894-1.9353 2.7214-0.0963 5.2305 0.28204 5.5759 0.8408 0.3453 0.55876 1.5013 1.0159 2.5688 1.0159 1.0676 0 1.941 0.45 1.941 1s-0.675 1-1.5 1c-1.8099 0-2.0139 2.6586-0.25 3.2584 0.6875 0.23381 1.9907-0.0327 2.8959-0.5922 1.2139-0.75028 2.0799-0.58334 3.2992 0.63597 1.3614 1.3614 2.0046 1.4365 3.6433 0.42554 1.9614-1.2102 1.9619-1.2322 0.035-1.5362-1.0751-0.16966-2.2048-0.96042-2.5106-1.7572-0.4535-1.1818 0.2219-1.3302 3.6654-0.80501 2.3218 0.35407 4.6714 0.97048 5.2214 1.3698 0.55 0.39933 3.3716 0.99277 6.2703 1.3188 2.8986 0.32599 7.7708 1.381 10.827 2.3443 4.8965 1.5435 5.5047 2.0241 5.1184 4.0447-0.2834 1.4825 0.043 2.2931 0.923 2.2931 0.7487 0 1.3613-0.675 1.3613-1.5 0-1 1-1.5 3-1.5 4.2 0 3.7346-1.6051-1.1093-3.8257-3.5318-1.6191-3.8128-1.9614-2-2.4354 2.644-0.6914 2.6781-2.1701 0.1093-4.7388-1.5555-1.5556-1.6666-2-0.5-2 1.1667 0 1.0556-0.44444-0.5-2-2.3791-2.3791-4.7836-2.5403-7.676-0.51437-1.7623 1.2343-2.2095 1.255-2.6443 0.12185-0.2879-0.75007-0.026-1.8611 0.5818-2.469 1.4893-1.4893 0.6272-2.1545-3.134-2.418-3.2246-0.22596-4.6589-2.1721-3.6118-4.9008 0.695-1.811 6.4843-1.2036 6.4843 0.68026 0 0.74106 1.8706 1.5535 4.4767 1.9443 2.4622 0.36923 4.7388 1.0953 5.059 1.6136 0.3203 0.51822 1.0324 0.94222 1.5824 0.94222s0.7219-0.45 0.3819-1c-0.3399-0.55-0.1414-1 0.441-1 0.5825 0 1.059-0.45 1.059-1s-1.3234-1-2.9409-1c-1.6176 0-3.2117-0.43796-3.5425-0.97324s-2.2699-1.7394-4.309-2.6759c-4.7871-2.1984-4.8968-2.3069-3.3179-3.2827 1.5013-0.92784 5.1103-0.25353 5.1103 0.95482 0 1.2266 4.3715-0.197 5.5731-1.8148 1.203-1.6197 7.8881-0.76338 6.8723 0.88027-1.0181 1.6473 2.3139 2.1016 5.0189 0.68429 2.4979-1.3088 2.5396-1.4547 0.8327-2.9128-0.9883-0.84426-4.3998-2.0938-7.581-2.7768l-5.784-1.2418 2.6232-2.0634c2.5036-1.9694 2.7801-1.9885 6.0679-0.42067 4.7451 2.2628 5.3769 2.0966 5.3769-1.4145 0-3.7245-1.9483-12.006-3.2033-13.616-0.503-0.64545-1.0157-4.0228-1.1393-7.5053-0.1874-5.285-0.7563-7.1046-3.441-11.007-1.769-2.5712-3.2307-5.2688-3.2482-5.9947-0.017-0.7259-0.7045-2.2097-1.5266-3.2974-1.3463-1.7811-1.3183-2.0473 0.2818-2.6797 1.4719-0.5817 1.3741-0.71421-0.5699-0.77243-1.2906-0.0387-4.4031-1.8805-6.9167-4.0931-5.1999-4.5771-8.1344-5.6376-11.144-4.0271-3.4181 1.8293-2.4574 3.5776 4.4321 8.0663 3.5889 2.3382 6.8514 4.8266 7.25 5.5296 0.3986 0.70302 2.3204 3.0053 4.2708 5.1161 5.1707 5.5963 8.405 10.22 7.6659 10.959-0.3553 0.35527-2.1233-1.0813-3.929-3.1924-5.7757-6.7527-14.017-13.889-19.112-16.55-2.9272-1.5288-5.1648-1.8993-9.5-1.5729-22.775 1.7149-52.182 8.6832-66.171 15.68-12.674 6.3389-19.128 9.9421-22.705 12.676-2.0871 1.595-4.9616 3.487-6.3878 4.2044-1.4262 0.71743-4.1935 2.7287-6.1497 4.4694-6.3082 5.6136-23.757 22.468-23.757 22.947 0 0.25568-1.8289 2.4342-4.0641 4.8412-4.8194 5.1896-16.289 19.798-17.884 22.78-1.471 2.7488-0.4926 2.5525 4.9483-0.99248zm49.559-13.007c0.3726-0.60286 1.9569-0.90833 3.5206-0.67882 1.7439 0.25593 3.0368-0.0871 3.3438-0.88703 0.6315-1.6458 3.5762-0.60089 3.5762 1.269 0 1.0236-1.4741 1.393-5.559 1.393-3.7764 0-5.3418-0.3515-4.8816-1.0961zm114.94 0.0961c0.3399-0.55 1.0415-1 1.559-1 0.5176 0 0.941 0.45 0.941 1s-0.7016 1-1.559 1c-0.8575 0-1.2809-0.45-0.941-1zm-16-4c0.3399-0.55 1.0415-1 1.559-1 0.5176 0 0.941 0.45 0.941 1s-0.7016 1-1.559 1c-0.8575 0-1.2809-0.45-0.941-1zm-72.5-15.04c0-0.45729 0.7875-1.0695 1.75-1.3604 2.6233-0.79291 12.306-0.0745 12.009 0.89091-0.34 1.1-13.76 1.56-13.76 0.47zm-1.5701-3.8529c0.7758-1.2552 6.9689-2.2813 9.0197-1.4943 1.363 0.52303 1.4424 0.83406 0.3843 1.5048-1.7798 1.1282-10.102 1.1189-9.404-0.0105zm15.383-0.79647c0.7219-0.28887 1.5844-0.25335 1.9167 0.0789 0.3323 0.33229-0.2584 0.56864-1.3125 0.52522-1.165-0.048-1.4019-0.28494-0.6042-0.60416zm3.6875-0.31689c0.3399-0.55 0.8165-1 1.059-1 0.2426 0 0.441 0.45 0.441 1s-0.4766 1-1.059 1c-0.5825 0-0.7809-0.45-0.441-1zm22.013 0.0207c-0.8757-1.4168 1.1754-4.7869 3.3294-5.4706 1.0144-0.32195 3.3233 0.0365 5.131 0.7966l3.2867 1.382-3.5334 0.66288c-1.9434 0.36458-3.7877 1.3256-4.0986 2.1357-0.6396 1.6668-3.2002 1.9738-4.1151 0.49347zm39.3 0.29622c0.7219-0.28887 1.5844-0.25335 1.9167 0.0789 0.3323 0.33229-0.2584 0.56864-1.3125 0.52522-1.165-0.048-1.4019-0.28494-0.6042-0.60416zm-47.56-2c0.9625-0.25152 2.5375-0.25152 3.5 0 0.9625 0.25153 0.175 0.45733-1.75 0.45733s-2.7125-0.2058-1.75-0.45733zm24.25-1.3107c-0.3505-0.56716 0.4896-1 1.941-1 1.4074 0 2.559 0.45 2.559 1s-0.8734 1-1.941 1c-1.0675 0-2.2191-0.45-2.559-1zm8.6101-28.367c-1.6259-1.9592 0.1479-3.102 7.8517-5.0586 5.0551-1.2839 7.0532-1.3962 9.1782-0.51606 3.4918 1.4464 4.4955 4.0041 2.2233 5.6656-2.4658 1.803-17.741 1.7308-19.253-0.0909zm73.14 65.711c0.4125-0.2539 0.75-1.3484 0.75-2.4323 0-1.8313-0.6657-1.9607-9.4156-1.8298-5.1786 0.0775-9.8944-0.15502-10.479-0.51663-1.2149-0.75084-9.105 1.3832-9.105 2.4626 0 0.77166 4.3656 1.7727 13 2.981 5.1764 0.72438 13.589 0.35762 15.25-0.66486zm-60.25-1.35c0-0.55-0.45-1-1-1s-1 0.45-1 1 0.45 1 1 1 1-0.45 1-1zm-130-1c0-0.55-0.4234-1-0.941-1-0.5175 0-1.2191 0.45-1.559 1s0.083 1 0.941 1c0.8574 0 1.559-0.45 1.559-1zm101-2c0-0.55-0.675-1-1.5-1s-1.5 0.45-1.5 1 0.675 1 1.5 1 1.5-0.45 1.5-1zm55.8-0.2c0.66-0.66 1.1931-1.6725 1.1847-2.25-0.01-0.68953-0.2675-0.67235-0.75 0.0501-0.4041 0.60503-2.0847 1.582-3.7347 2.171-2.9218 1.0431-2.9335 1.073-0.45 1.1499 1.4025 0.0434 3.09-0.46105 3.75-1.121zm87.7-1.8c0.3399-0.55 0.168-1-0.382-1s-1.2781 0.45-1.618 1-0.168 1 0.382 1 1.2781-0.45 1.618-1zm42.229 0.39583c-0.3323-0.33229-1.1948-0.36781-1.9167-0.0789-0.7977 0.31922-0.5608 0.55618 0.6042 0.60416 1.0541 0.0434 1.6448-0.19293 1.3125-0.52522zm-116.31-1.2622c0.2945-0.4765-0.3646-1.6809-1.4646-2.6764-1.5924-1.4411-2.25-1.5565-3.2264-0.56633-0.9705 0.98418-0.8214 1.5426 0.7147 2.6764 2.2331 1.6482 3.2208 1.7888 3.9763 0.56633zm22.198-1.3198c0.5577-0.90229-1.2571-1.0503-10.115-0.82519-3.3 0.0839-6.45 0.59522-7 1.1363-0.6567 0.64601 2.0236 0.90122 7.806 0.74329 4.8433-0.13227 9.0323-0.60675 9.309-1.0544zm0.3561-5.7662c1.3118-2.124 0.3017-3.0729-2.974-2.7939-1.5894 0.13537-2.8014-0.20387-2.6934-0.75387 0.1079-0.55 1.4809-1.0148 3.0509-1.0328 2.9012-0.0333 6.0611-2.9855 5.0122-4.6827-0.313-0.50646-1.3111-0.62642-2.2179-0.26657-0.9069 0.35985-5.4739 0.83526-10.149 1.0565-10.302 0.48744-15 1.2307-15 2.3731 0 1.6799 5.9996 2.908 11.455 2.345 3.6003-0.37159 5.5448-0.2004 5.5448 0.48817 0 1.1778-2.3976 1.7519-12 2.8732-6.4009 0.74744-6.439 0.76963-2.5 1.4559 7.1318 1.2426 21.466 0.56511 22.471-1.062zm-34.203-2.0478c1.1451-1.8336 0.9987-2-1.7594-2-3.2037 0-3.7549 0.85355-1.8085 2.8 1.6326 1.6326 2.1165 1.5241 3.5679-0.8zm104.03-0.2c1.357-1.357 1.6298-4.8 0.3803-4.8-0.8379 0-5.1803 4.6168-5.1803 5.5076 0 0.99271 3.6356 0.45676 4.8-0.70761zm-239.53-1.4559c-0.677-0.27392-2.027-0.29059-3-0.0371-0.9729 0.25354-0.419 0.47766 1.231 0.49804 1.65 0.0204 2.4461-0.18706 1.769-0.46099zm13.72-5.34c0-0.55-0.9266-1-2.059-1-1.1325 0-1.7809 0.45-1.441 1s1.2665 1 2.059 1c0.7926 0 1.441-0.45 1.441-1zm160.15-3.3038c0.7266-1.2984 0.3608-1.7808-1.7523-2.3111-2.9446-0.73904-24.268 0.15132-25.167 1.0509-1.2405 1.2405 0.976 1.7009 10.356 2.1512 5.3922 0.25885 9.9193 0.58595 10.06 0.72688 0.9288 0.92886 5.7486-0.27029 6.5028-1.6179zm71.505 0.76072c0.3257-0.84872 0.3225-1.8128-0.01-2.1425-0.7122-0.71223-3.6477 1.5476-3.6477 2.8081 0 1.5091 3.0324 0.9569 3.6549-0.66557zm-152.93-1.061c-0.3323-0.33229-1.1948-0.36781-1.9167-0.0789-0.7977 0.31922-0.5608 0.55618 0.6042 0.60416 1.0541 0.0434 1.6448-0.19293 1.3125-0.52522zm167.76-1.3844c0.3504-0.56686-0.051-0.7345-0.941-0.39301-1.7324 0.66479-2.0494 1.3816-0.6109 1.3816 0.5175 0 1.2159-0.44485 1.5519-0.98855zm-176.57-2.6005c-0.644-0.77603-1.5659-1.411-2.0485-1.411-1.3532 0-1.0381 2.7758 0.3724 3.2817 2.0027 0.71839 2.9487-0.33741 1.6761-1.8708zm14.633 1.0572c-2.1811-1.6497-4.1779-1.8937-4.9727-0.60768-0.8553 1.3839 0.5221 2.1418 3.8305 2.1077 2.9275-0.0302 2.9852-0.10601 1.1422-1.5zm80.766-2.9469c1.3036-0.5662 1.6583-1.4541 1.2427-3.1102-0.6764-2.6947 0.2726-2.9432 14.783-3.8719 5.3712-0.34373 9.6845-1.1507 10.972-2.0528 1.1672-0.81755 2.9221-1.4865 3.8997-1.4865s1.7775-0.51798 1.7775-1.1511c0-0.84165-2.7553-0.95089-10.25-0.40641-5.6375 0.40956-16.1 1.1412-23.25 1.626-7.15 0.48472-14.912 1.1649-17.25 1.5114-3.4964 0.5184-4.25 0.34554-4.25-0.97491 0-0.88277-0.6609-1.605-1.4686-1.605-0.8946 0-1.2436 0.58629-0.893 1.5 0.4498 1.1723-0.267 1.503-3.2814 1.5136-4.8462 0.0172-8.357 0.9323-8.357 2.1784 0 0.5332 2.5523 0.83367 5.75 0.67694 10.775-0.5281 30.25 0.12842 30.25 1.0198 0 1.2707-4.6924 1.9133-19.5 2.6705-7.15 0.36565-13.158 0.80946-13.35 0.98626-0.1926 0.1768-0.081 0.75657 0.2474 1.2884 0.709 1.1472 30.211 0.86716 32.927-0.31253zm-10.82-12.53c0.3446-0.55763-0.4034-0.99323-1.691-0.98469-1.8576 0.0123-2.0158 0.20481-0.809 0.98469 1.8607 1.2025 1.7568 1.2025 2.5 0zm-10.5-3.04c4.3529-1.6019 13.822-2.6752 17.731-2.0099l3.7689 0.64144-3.3163 0.69247c-2.1127 0.44115-3.0614 1.1048-2.6141 1.8286 0.8837 1.4299 27.438 0.56291 35.282-1.152 2.9434-0.64348 6.6054-0.91921 8.1379-0.61272 2.0455 0.4091 3.2813-0.00097 4.6483-1.5424l1.8621-2.0997-9 0.76434c-4.95 0.42039-10.8 0.95488-13 1.1878-2.2 0.23288-7.6 0.63013-12 0.88277l-8 0.45935 5-2.0511c3.1782-1.3038 6.3498-1.8872 8.7044-1.6013 2.0375 0.24742 5.4999-0.16874 7.6944-0.92479 2.1944-0.75605 8.2671-1.6753 13.495-2.0428 8.5833-0.60335 9.5341-0.86836 9.8056-2.7331 0.1789-1.2282 1.2837-2.2954 2.7266-2.6336 1.3342-0.31272 2.6092-1.1187 2.8333-1.791 0.46-1.3799-5.9298-1.6021-9.2057-0.32014-1.8578 0.72704-1.8464 0.78786 0.25 1.3361 3.716 0.97174 2.5428 2.8272-1.5535 2.4568-2.0625-0.18646-4.875 0.0886-6.25 0.61125s-6.55 1.0861-11.5 1.2522c-16.059 0.5387-45.46 3.3202-47 4.4466-0.55 0.40222-4.15 1.3003-8 1.9956-8.5942 1.5523-9.304 1.9339-6.9015 3.7106 2.0271 1.499 11.461 1.0668 16.402-0.75136zm126-0.0191c0-0.51752-0.45-0.94096-1-0.94096s-1 0.70156-1 1.559c0 0.85746 0.45 1.2809 1 0.94098s1-1.0415 1-1.559zm-48-0.94096c0-0.55-0.45-1-1-1s-1 0.45-1 1 0.45 1 1 1 1-0.45 1-1zm-5.1875-1.9375c0.25-0.75-0.125-1.125-0.875-0.875-0.7219 0.24062-1.5094 1.0281-1.75 1.75-0.25 0.75 0.125 1.125 0.875 0.875 0.7219-0.24063 1.5094-1.0281 1.75-1.75zm-82.428-3.2638c2.2638-0.66072 4.3425-1.5201 4.6193-1.9098 0.2767-0.38965 1.8517-0.89878 3.5-1.1314 1.6482-0.23262 0.3811-0.45135-2.8158-0.48607-3.1969-0.0347-6.1088-0.35947-6.471-0.72166-1.1761-1.176 2.1841-2.5188 6.3424-2.5345 2.2324-0.008 4.9323-0.676 6-1.4835 1.8208-1.3772 1.7124-1.4702-1.7499-1.5-2.03-0.0175-3.9691 0.4182-4.309 0.9682s-2.504 1.0143-4.809 1.0318c-2.3051 0.0175-5.0645 0.6925-6.1321 1.5-1.6284 1.2317-1.6782 1.4682-0.3091 1.4682 3.1859 0 2.7788 1.9612-0.7095 3.4187-1.9472 0.81358-3.5403 1.7272-3.5403 2.0303 0 0.97307 6.1392 0.58861 10.384-0.65029zm21.366-5.488c-0.9625-0.25152-2.5375-0.25152-3.5 0-0.9625 0.25153-0.175 0.45733 1.75 0.45733s2.7125-0.2058 1.75-0.45733zm6.9167-0.81067c0-0.825-0.825-1.5-1.8334-1.5-1.0083 0-1.8333 0.675-1.8333 1.5s0.825 1.5 1.8333 1.5c1.0084 0 1.8334-0.675 1.8334-1.5zm37.285-1.1394c6.1493-0.62603 5.1273-2.1997-1.5218-2.3432-9.9833-0.21552-30.43 1.856-30.43 3.083 0 0.88608 20.686 0.40713 31.952-0.7398zm-48.76-2.56c-0.9333-0.93333-1.4667-0.93333-2.4 0s-0.6667 1.2 1.2 1.2 2.1333-0.26667 1.2-1.2zm9.8-0.8c0-0.55-0.4234-1-0.941-1-0.5175 0-1.2191 0.45-1.559 1s0.083 1 0.941 1c0.8574 0 1.559-0.45 1.559-1zm-14.5-2.0267c6.6-0.61788 13.575-1.5092 15.5-1.9806 1.925-0.47145 5.6769-1.1697 8.3376-1.5516 3.9767-0.57087 4.5996-0.92311 3.5-1.9793-2.4695-2.372-44.698 3.6187-45.65 6.4761-0.3354 1.0063 0.3835 1.189 2.9342 0.74579 1.8582-0.32285 8.7785-1.0926 15.378-1.7104zm35.912 0.42188c2.3645-0.90737 0.866-2.3952-2.4125-2.3952-2.885 0-4.5079 1.1588-3.3062 2.3605 0.807 0.80693 3.6611 0.82424 5.7187 0.0347zm34.09-1.37c0.55-0.13809 1.225-0.16678 1.5-0.0637 0.275 0.10303 1.7375 0.35062 3.25 0.5502 3.0097 0.39714 3.9272-1.835 1.1866-2.8866-0.8598-0.32996-1.2951-1.0339-0.9673-1.5644 0.907-1.4675-4.8012-4.0846-6.5284-2.9932-0.7925 0.50075-2.8519 0.65248-4.5764 0.33717-1.7245-0.3153-3.4065-0.1347-3.7378 0.40134-0.3529 0.57096 2.1882 1.2973 6.1355 1.7536l6.7378 0.77904-4.5 0.88601c-2.475 0.48731-6.8745 0.63324-9.7767 0.32428-3.7183-0.39583-6.1548-0.10763-8.25 0.97583-1.6353 0.84565-2.9733 1.6738-2.9733 1.8404 0 0.35172 21.009 0.0343 22.5-0.33994zm-86.625-2.6392c1.7187-0.34375 3.125-1.0188 3.125-1.5 0-1.486-6.6813-0.96398-8 0.625-1.4377 1.7324-0.37 1.924 4.875 0.875zm70.458-4.9377c2.56-1.43 4.66-3.14 4.66-3.79 0-2.0881-6.0775-8.6424-8.0138-8.6424-1.0275 0-2.1131-0.39627-2.4124-0.8806-0.8606-1.3924-5.7481-2.0036-8.2911-1.0368-3.0374 1.1548-4.6615 5.3411-3.1603 8.1461l1.1227 2.0978 1.672-2.2166c1.4506-1.9231 2.0471-2.074 4.5045-1.1397 2.4959 0.94896 2.7681 1.4602 2.2905 4.3034-0.2981 1.7746-0.8792 4.0813-1.2915 5.1261-0.6462 1.6379-0.4053 1.8133 1.7482 1.2728 1.3738-0.34478 4.5978-1.8006 7.1645-3.2352zm-49.34 1.11c4.675-0.79493 10.075-1.4737 12-1.5085 7.142-0.12886 8.0005-0.3981 7.9847-2.5041-0.01-1.1196-0.4584-2.7107-1-3.5357-0.8462-1.289-1.1137-1.2995-1.9023-0.0743-0.5046 0.78412-2.5227 1.5521-4.4846 1.7066-1.9618 0.1545-4.3614 0.70604-5.3324 1.2256-1.7709 0.94767-7.727 2.0239-14.265 2.5777-1.925 0.16305-5.075 0.99503-7 1.8489l-3.5 1.5524 4.5 0.0784c2.475 0.0431 8.325-0.57202 13-1.367zm-22.45-1.3658c1.1237-0.96694 8.9374-2.7899 15.913-3.7125 2.7294-0.36099 6.6668-1.3382 8.7497-2.1717 2.1289-0.8518 4.891-1.2383 6.308-0.88265 1.3864 0.34797 3.524 0.0813 4.7502-0.59263 1.2262-0.67392 3.1022-1.37 4.1688-1.5468 1.0666-0.17683 2.1916-0.57898 2.5-0.89366 0.8547-0.8721-22.154 0.62889-24.439 1.5943-1.1 0.46479-5.4943 1.8697-9.765 3.122-4.2708 1.2523-8.5031 3.0924-9.405 4.089-1.6153 1.7848-0.6309 2.5873 1.22 0.99462zm-2.8945-5.0927c2.11-1.05 8.34-2.64 13.84-3.55 5.5-0.90229 11.627-2.0677 13.616-2.5898 1.9888-0.52208 5.2248-0.94923 7.191-0.94923 3.8662 0 5.5931-1.4999 3.796-3.297-0.8303-0.83032-3.2689-0.66192-9.3629 0.6466-4.532 0.97314-10.94 2.2104-14.24 2.7495-7.6491 1.2496-22.5 5.7157-22.5 6.7664 0 2.6334 2.6508 2.711 7.6555 0.22429zm93.34-1.09c0-0.55-0.4234-1-0.941-1-0.5175 0-1.2191 0.45-1.559 1s0.083 1 0.941 1c0.8574 0 1.559-0.45 1.559-1zm-99.45-3.8261c0.5225-0.45437 2.975-1.4066 5.45-2.116 2.475-0.70942 5.625-1.6677 7-2.1295s5.425-1.3281 9-1.925c7.4995-1.2523 16.922-3.054 18.773-3.5897 2.4784-0.71725 2.6364-3.664 0.2979-5.5576l-2.263-1.8324 2.3462-0.88756c1.2904-0.48816 4.8212-1.2538 7.8462-1.7015 3.025-0.44766 5.8375-0.89733 6.25-0.99925 0.4125-0.10193 1.875-0.24157 3.25-0.31032 1.375-0.0687 2.5-0.575 2.5-1.125 0-1.4964-11.891-1.2113-19.685 0.47186-3.7485 0.80952-10.19 2.593-14.315 3.9633-7.1421 2.3726-7.2733 2.4693-2.75 2.0281 2.6125-0.25481 6.775-0.73361 9.25-1.064 3.5486-0.4737 4.5-0.29275 4.5 0.85583 0 1.0181-2.9348 2.1506-9.75 3.7624-12.75 3.0153-25.757 7.5755-30.179 10.58-3.3943 2.3064-3.4343 2.4022-1.0031 2.4022 1.3926 0 2.9596-0.37175 3.4821-0.82612zm55.45-3.61c0-0.24254-0.45-0.7191-1-1.059-0.55-0.33992-1-0.14148-1 0.44098s0.45 1.059 1 1.059 1-0.19844 1-0.44098zm-55.54-2.9064c3.1381-2.2946-0.033-2.8838-3.6503-0.67824-3.2313 1.9701-3.2492 2.0182-0.7512 2.0219 1.4074 0.002 3.388-0.60257 4.4015-1.3436zm-6.46-3.65c0-0.55 0.8734-1 1.941-1 1.0675 0 2.2199-0.45136 2.5609-1.003 0.9291-1.5033-2.8877-0.65996-5.6218 1.2422-1.9459 1.3538-2.0608 1.6655-0.6301 1.7084 0.9625 0.0289 1.75-0.39755 1.75-0.94755zm17.25-1.6623c-0.6875-0.27741-1.8125-0.27741-2.5 0s-0.125 0.50439 1.25 0.50439 1.9375-0.22698 1.25-0.50439zm43.074-2.7392c0.3197-0.83316-0.2447-1.6061-1.392-1.9061-2.0969-0.54837-3.4206 0.70767-2.4318 2.3076 0.9036 1.462 3.2013 1.2208 3.8238-0.40146zm-47.595-1.2027c-0.3323-0.33229-1.1948-0.36781-1.9167-0.0789-0.7977 0.31922-0.5608 0.55618 0.6042 0.60416 1.0541 0.0434 1.6448-0.19292 1.3125-0.52522zm65.28-0.4c1.1456-0.74031 0.7911-0.95638-1.5-0.9144-1.65 0.0302-3.9 0.44171-5 0.9144-1.6342 0.70224-1.3598 0.86948 1.5 0.9144 1.925 0.0302 4.175-0.38124 5-0.9144zm17.5-1c-0.3399-0.55-1.0415-1-1.559-1-0.5176 0-0.941 0.45-0.941 1s0.7016 1 1.559 1c0.8575 0 1.2809-0.45 0.941-1zm-81.5-3.04c1.0955-0.74131 0.6909-0.83408-1.5-0.34401-3.6769 0.82247-4.4751 1.3948-1.9167 1.3744 1.0542-0.008 2.5917-0.47209 3.4167-1.0304zm5.25-1.6166c-0.6875-0.27741-1.8125-0.27741-2.5 0s-0.125 0.50439 1.25 0.50439 1.9375-0.22698 1.25-0.50439zm-7.75-2.3377c0.3399-0.55 1.518-1 2.618-1s1.7219-0.45 1.382-1c-1.0609-1.7166-4.9599-1.0945-6.2679 1-1.0333 1.6546-0.9987 2 0.2004 2 0.7972 0 1.7276-0.45 2.0675-1zm22.95-1.9362c0.5773-0.46669 1.9496-1.0698 3.0496-1.3401 1.5238-0.37457 1.3453-0.51922-0.75-0.60761-1.5125-0.0638-2.75 0.334-2.75 0.884s-1.4625 1.0069-3.25 1.0153c-1.7875 0.008-3.925 0.49477-4.75 1.0808-1.1087 0.78751-0.339 0.90251 2.9504 0.44082 2.4477-0.34355 4.9227-1.0065 5.5-1.4732zm15.55-0.123c0-0.58246 0.3375-0.87141 0.75-0.64213 0.4125 0.22929 3 0.0567 5.75-0.38342 4.6085-0.73766 4.4458-0.77709-2.0782-0.50368-7.5057 0.31454-14.055 2.4981-7.6718 2.5578 1.7875 0.0167 3.25-0.44615 3.25-1.0286zm19-2.941c0-0.55-0.1984-1-0.441-1-0.2425 0-0.7191 0.45-1.059 1s-0.1415 1 0.441 1c0.5824 0 1.059-0.45 1.059-1zm-38.731-0.65594c-0.677-0.27392-2.027-0.29059-3-0.037-0.9729 0.25354-0.419 0.47766 1.231 0.49804 1.65 0.0204 2.4461-0.18706 1.769-0.46099zm17.981-0.006c-0.6875-0.27741-1.8125-0.27741-2.5 0s-0.125 0.50439 1.25 0.50439 1.9375-0.22698 1.25-0.50439zm-0.25-4.325c0-1.0474-7.3194-0.96934-10.75 0.11463-5.5085 1.7405-3.6051 2.4867 3.75 1.4701 3.85-0.53213 7-1.2452 7-1.5847zm-34.604-2.4168c0.6069-0.76165 2.4535-1.6207 4.1035-1.9091 1.65-0.28834 5.025-1.0402 7.5-1.6708 3.7683-0.96015 4.6539-0.90468 5.4462 0.34112 0.833 1.3098 1.0751 1.3114 2.0244 0.0132 0.593-0.81097 2.4725-1.6942 4.1767-1.9628 2.5665-0.40449 3.228-0.0952 3.8525 1.8017l0.7541 2.29 0.4426-2.25c0.5303-2.6956 2.0835-2.8926 3.9433-0.5 1.293 1.6635 1.4296 1.6606 2.7642-0.0598 0.9372-1.208 1.6316-1.4415 2.0886-0.70215 0.3765 0.60923 1.4756 0.97368 2.4424 0.8099 0.9668-0.16379 2.4769 0.29903 3.3558 1.0285 1.3549 1.1244 1.8611 1.019 3.3267-0.69263 1.1667-1.3626 2.2412-1.7571 3.3056-1.2135 1.7688 0.90339 5.5864 0.68441 18.334-1.0516 7.0419-0.95902 8.7064-1.5035 8.5-2.7806-0.1934-1.1971 0.605-1.5881 3.2434-1.5881 2.8333 0 3.5 0.38095 3.5 2 0 1.4954 0.7569 2.0683 3 2.2706 2.5024 0.22574 2.7097 0.0931 1.25-0.79969-2.2526-1.3777-2.208-2.563 0.1935-5.1407 1.7954-1.9272 2.0675-1.9621 3.5714-0.45818 0.8954 0.89535 1.9791 1.6279 2.4082 1.6279 0.4292 0 2.3045 1.4566 4.1674 3.2369 3.0725 2.9363 3.4162 3.0524 3.6999 1.25 0.172-1.0928 0.7993-2.9691 1.394-4.1695 1.1653-2.352 0.5223-5.3175-1.153-5.3175-0.5673 0-1.0314 0.675-1.0314 1.5 0 1.8165-2.3498 1.9382-5.3157 0.27543-1.2014-0.67351-5.3343-1.5143-9.1843-1.8684-3.85-0.35413-8.0748-0.91422-9.3884-1.2447-3.8113-0.95874-10.071-0.84447-17.612 0.32149-3.85 0.59531-12.85 1.2472-20 1.4485-22.652 0.63798-27.708 1.8012-38.875 8.9443-6.3054 4.0335-9.6254 6.7437-9.6254 7.8573 0 1.2932 8.1999-0.13561 9.3965-1.6373zm3.1129-13.606c4.0835-3.8362 14.415-5.3089 51.729-7.3736 8.2933-0.45888 12.388-2.6411 10.532-5.6129-1.7843-2.8572 0.2053-4.623 3.3268-2.9524 1.2717 0.68063 4.553 1.3086 7.2916 1.3955 2.8493 0.0904 5.1501 0.67012 5.3784 1.3551 0.2195 0.65843 2.1616 1.1971 4.3157 1.1971 2.1542 0 3.9167 0.39152 3.9167 0.87004 0 1.2546 8.6256 3.4876 10.578 2.7384 1.3359-0.51262 1.4138-0.91341 0.4122-2.1203-0.6793-0.8185-2.1096-1.4882-3.1784-1.4882-2.4421 0-5.8118-1.7598-5.8118-3.0352 0-0.53065 0.6484-0.96482 1.441-0.96482 0.7925 0 1.7663-0.52647 2.164-1.1699 0.4862-0.78665 0.1779-0.96074-0.941-0.53138-0.9152 0.3512-1.664 0.2749-1.664-0.16955 0-1.4857-5.0452-3.1291-9.6061-3.1291-5.5124 0-5.0009 1.3579 1.0891 2.8914 2.4844 0.62557 4.517 1.6431 4.517 2.2611 0 1.5721-12.833 0.18055-15.715-1.704-1.2182-0.79666-3.1572-1.4485-4.309-1.4485s-1.8625-0.37497-1.5792-0.83327c0.2832-0.4583 1.9421-0.62381 3.6864-0.3678 2.3871 0.35035 3.059 0.12363 2.7169-0.91673-0.25-0.76021-1.684-1.5272-3.1867-1.7043-1.5828-0.18663-2.5495-0.81763-2.2979-1.5 0.2389-0.64782 1.053-1.0009 1.8093-0.78468 0.7563 0.21625 2.4439 0.32913 3.7503 0.25083 3.8654-0.23165 15.255 1.7779 20.458 3.6094 4.6928 1.6521 4.8658 1.6441 5.963-0.27597 0.6215-1.0876 1.1466-2.645 1.167-3.461 0.045-1.8098 3.3502-2.6032 4.8008-1.1525 0.7352 0.7352 0.7059 1.4677-0.098 2.4358-0.6319 0.76141-0.8799 1.6534-0.5511 1.9822 0.8612 0.86124 4.7045-2.9555 4.0471-4.0192-1.7826-2.8844-18.601-8.1479-31.412-9.8306-3.2823-0.43114-5.25-1.176-5.25-1.9874 0-1.9146 2.8685-2.1587 8.4679-0.72049 8.0269 2.0617 9.4959 1.3929 3.0321-1.3804-3.3-1.4159-7.2617-3.4702-8.8037-4.5652-1.8056-1.2822-3.7498-1.8101-5.4616-1.4828-1.7561 0.3357-3.095-0.0524-3.9463-1.1437-1.1965-1.5339-1.382-1.5316-2.6002 0.0319-2.021 2.594-6.2994 3.3335-7.4448 1.2868-0.7681-1.3724-1.3489-1.4844-3.031-0.58412-1.1445 0.61251-2.7286 1.1137-3.5203 1.1137-0.7916 0-3.4087 1.8139-5.8157 4.0308l-4.3764 4.0308-0.9798-2.6353c-0.8959-2.4097-1.3324-2.587-5.0997-2.0706-4.1543 0.56941-10.402 3.5058-10.414 4.8942-0.01 1.2233-2.9114 0.85596-5.2915-0.67004-1.9753-1.2665-2.8813-1.1506-8.3793 1.0717-8.5772 3.4668-10.798 7.0031-11.681 18.598-0.6329 8.3132-0.566 8.75 1.3397 8.75 2.4027 0 2.4451 0.50336 0.5058 6-0.825 2.3383-1.5 4.4199-1.5 4.6257 0 1.1714 3.6871 0.0774 5.5094-1.6346zm-0.7594-3.6534c0.6875-0.27741 1.8125-0.27741 2.5 0s0.125 0.50439-1.25 0.50439-1.9375-0.22698-1.25-0.50439zm1.25-8.0307c0-1.3367 2.2045-3.307 3.7-3.307 0.715 0 1.3 0.675 1.3 1.5s-0.4132 1.5-0.9182 1.5-1.63 0.27314-2.5 0.60699c-0.87 0.33384-1.5818 0.19884-1.5818-0.3zm-0.6628-15.871c-0.5848-1.5238 2.9748-4.9362 5.1491-4.9362 1.808 0 1.757 3.849-0.069 5.1839-2.4024 1.7567-4.3477 1.6618-5.0804-0.24767zm89.716-0.33715c-0.9522-1.7793-0.7945-1.8325 2.4648-0.83222 4.0379 1.2392 4.594 2.7331 1.0174 2.7331-1.3985 0-2.9049-0.82234-3.4822-1.9009zm-19.867-1.154c-3.1272-1.2542-1.8349-2.9451 2.2508-2.9451 4.2274 0 6.6748 2.4692 3.3345 3.3642-2.7444 0.73531-2.6983 0.73877-5.5853-0.41913zm-36.107-4.5284c0.048-1.165 0.285-1.4019 0.6042-0.60417 0.2889 0.72187 0.2534 1.5844-0.079 1.9167-0.3323 0.33229-0.5686-0.25834-0.5252-1.3125zm76.393 26.688c-1.0847-1.0425-3.0972-2.2233-4.4722-2.624l-2.5-0.7285 2.5 1.9747c2.1913 1.7308 4.4526 2.9403 5.9722 3.1944 0.2597 0.0434-0.4153-0.77402-1.5-1.8165zm-26.97-2.104c0.3399-0.55-0.3351-1-1.5-1s-1.8399 0.45-1.5 1 1.0149 1 1.5 1 1.1601-0.45 1.5-1zm47.5-2c0-0.55-0.9266-1-2.059-1-1.1325 0-1.7809 0.45-1.441 1s1.2665 1 2.059 1c0.7926 0 1.441-0.45 1.441-1zm-19-2c0-0.55-0.4766-1-1.059-1-0.5825 0-0.7809 0.45-0.441 1s0.8165 1 1.059 1c0.2426 0 0.441-0.45 0.441-1zm-10-2c0-0.55-0.6382-1-1.4182-1s-2.13-0.27315-3-0.60699-1.5818-0.14184-1.5818 0.42668c0 0.97152 1.9076 1.8005 4.75 2.0643 0.6875 0.0638 1.25-0.334 1.25-0.884zm28-3c0-0.55-0.7016-1-1.559-1-0.8575 0-1.2809 0.45-0.941 1s1.0415 1 1.559 1c0.5176 0 0.941-0.45 0.941-1zm-6.8962-2.2962c-1.2835-1.2835-2.585-0.2915-1.6348 1.246 0.368 0.59556 1.1273 0.79971 1.6872 0.45366 0.683-0.42212 0.6658-0.98146-0.052-1.6996zm-25.1-14.704c0-0.55-1.0882-1-2.4182-1s-3.2425-0.29123-4.25-0.64718c-1.2701-0.44872-1.5251-0.32136-0.8318 0.41532 0.55 0.58438 2.125 1.2643 3.5 1.511 1.375 0.24667 2.8375 0.50978 3.25 0.58468s0.75-0.31382 0.75-0.86382zm3-4.9387c0-1.2854-8.5407-2.4719-10.179-1.4142-1.1924 0.76985 0.5204 1.1924 8.929 2.2027 0.6875 0.0826 1.25-0.27224 1.25-0.78854zm-93.73 503.93c0.083-1.1 0.5315-2 0.9969-2s0.5681-0.45 0.2282-1c-0.8248-1.3346 2.4321-1.2682 6.4472 0.1314 2.3697 0.8261 2.8822 1.3617 1.8992 1.9847-1.0106 0.6404-0.8475 0.8746 0.6536 0.9389 3.8304 0.1639-1.56 1.797-6.1878 1.8747-3.5924 0.06-4.1665-0.2141-4.0373-1.9297zm175.27 0.069c-0.3164-0.512-0.118-1.2136 0.441-1.559 1.9819-1.225 0.9644-3.7149-3.0467-7.4552-3.9412-3.6751-3.9936-3.8075-1.75-4.4169 1.6615-0.4512 2.6994-0.066 3.685 1.3669 1.5236 2.2155 3.749 2.6321 4.3546 0.8152 0.2427-0.7281 1.1338-0.8958 2.3268-0.438 1.8698 0.7175 1.8613 0.7977-0.2561 2.4299-1.9656 1.5153-2.0417 1.8866-0.7435 3.6291 1.8267 2.4519 1.8117 3.0506-0.1252 4.9875-1.7566 1.7565-4.0133 2.0524-4.8859 0.6405zm-40.04-2.07c-0.5955-0.9635 3.3393-1.6025 6.5-1.0555 0.825 0.1428 4.2 0.595 7.5 1.005 5.7448 0.7138 5.5878 0.752-3.691 0.898-5.5552 0.087-9.9547-0.2743-10.309-0.8475zm45.75-14.25c0.2292-0.6875 1.0167-1.25 1.75-1.25s1.5208 0.5625 1.75 1.25c0.2479 0.7436-0.4611 1.25-1.75 1.25s-1.9979-0.5064-1.75-1.25zm-289.01-1c-1.9385-2.4138-6.2657-11.75-5.4459-11.75 0.8381 0 4.687 4.7047 6.9195 8.458 1.4419 2.4243 1.6321 4.542 0.4078 4.542-0.4826 0-1.3292-0.5625-1.8814-1.25zm-25.24-2.13c0-1.375 0.45-2.7781 1-3.118 0.5648-0.3491 1 0.4699 1 1.882 0 1.375-0.45 2.7781-1 3.118-0.5648 0.349-1-0.47-1-1.882zm6 0.01c0-1.3062-0.2456-3.8937-0.5459-5.75-0.5314-3.2857-0.5053-3.2691 0.985 0.625 1.7729 4.6327 1.9874 7.5 0.5609 7.5-0.55 0-1-1.0687-1-2.375zm7 0.816c0-0.8575 0.45-1.2809 1-0.941s1 1.0415 1 1.559c0 0.5176-0.45 0.941-1 0.941s-1-0.7016-1-1.559zm19.919-0.5926c-0.9942-1.8577-0.9195-2.0626 0.5466-1.5 0.934 0.3584 1.8864 0.6516 2.1164 0.6516s0.4182 0.675 0.4182 1.5c0 2.1993-1.7539 1.8284-3.0812-0.6516zm-47.181 0.4016c-0.2091-0.4125 0.065-3.225 0.6101-6.25l0.9903-5.5 0.8206 4.4949c0.4513 2.4722 0.5698 5.2847 0.2635 6.25-0.5718 1.8015-2.0081 2.3393-2.6845 1.0051zm5.8298-5.3551c-0.8233-7.2776-0.1502-8.5334 1.9193-3.5806 1.9177 4.5899 1.9926 9.6857 0.1423 9.6857-0.936 0-1.59-1.9366-2.0616-6.1051zm47.082 2.3423c-1.3064-2.0696-4.0721-5.4596-6.1459-7.5334-2.0737-2.0738-3.5018-4.0391-3.1735-4.3674 1.3642-1.3642 15.168 13.048 14.12 14.743-1.067 1.7264-2.424 0.923-4.8011-2.8425zm-67.088 0.8633c-0.9223-1.4923 4.5485-13.1 6.1742-13.1 1.5238 0 1.2978 1.1685-1.7323 8.9549-1.758 4.5174-3.3143 5.97-4.4419 4.1456zm7.881-2.3505c0.3686-1.7875 0.9169-4.9375 1.2186-7 0.3522-2.4086 1.0809-3.75 2.0372-3.75 1.2139 0 1.3658 0.9692 0.8226 5.25-0.9357 7.3739-1.4393 8.75-3.2024 8.75-1.2151 0-1.4026-0.6958-0.876-3.25zm334.56 1.36c0-1.1663 2.9208-2.274 4.0902-1.5512 1.7625 1.0892 0.881 2.4442-1.5902 2.4442-1.375 0-2.5-0.4019-2.5-0.893zm-352-0.4978c0-2.1242 6.0869-12.609 7.32-12.609 1.4978 0-0.5177 6.3926-3.0709 9.74-2.122 2.7821-4.2491 4.2184-4.2491 2.8692zm-11.577-1.7341c-0.3527-0.5707 0.5329-2.2632 1.968-3.7611 1.435-1.4979 2.6092-3.2062 2.6092-3.7963s0.6697-1.6286 1.4882-2.3079c2.8435-2.3599 2.9344 1.6993 0.1131 5.0521-1.4307 1.7004-2.6013 3.4589-2.6013 3.9078 0 1.3133-2.8753 2.041-3.5772 0.9054zm59.577-0.29c0-0.7791-0.5625-1.6175-1.25-1.8631-0.6875-0.2455-0.8757-0.8448-0.4182-1.3317 0.4703-0.5007 1.4479-0.043 2.25 1.0542 1.6645 2.2764 1.8151 3.5573 0.4182 3.5573-0.55 0-1-0.6375-1-1.4167zm-68-1.592c0-0.5547 1.2067-2.363 2.6816-4.0183 3.5135-3.9432 5.3811-2.3294 2.2326 1.9292-2.2186 3.0008-4.9142 4.1467-4.9142 2.0891zm85.667 0.342c-0.3667-0.3666-0.6667-1.1316-0.6667-1.7 0-0.6266 0.4658-0.5675 1.1833 0.15 0.6509 0.6509 0.9509 1.4159 0.6667 1.7-0.2842 0.2842-0.8167 0.2167-1.1833-0.15zm16.332-1.0833c0-1.3333-4.4224-5.7236-7.1958-7.147-2.7968-1.4354-4.2767-3.6922-2.9564-4.5082 0.4176-0.2581 2.1736 0.8525 3.9021 2.468 1.7286 1.6154 3.3691 2.9372 3.6455 2.9372 1.3573 0 5.7036 5.0327 5.1375 5.9487-0.746 1.2071-2.5311 1.4194-2.5329 0.3013zm245.68 0.094c-1.5269-1.5269-0.4731-2.3443 3.0223-2.3443 2.2012 0 3.3152 0.3595 2.75 0.8876-1.4196 1.3264-4.9993 2.2298-5.7723 1.4567zm-353.66-1.0943c0.026-1.2879 1.3795-2.7292 4.3215-4.603 3.7777-2.4062 4.0894-1.7656 1.0379 2.1335-2.2814 2.915-5.3978 4.351-5.3594 2.4695zm63.055-2c0.062-2.4369 0.1681-2.5223 0.9297-0.75 1.1737 2.7314 1.1737 3.5 0 3.5-0.55 0-0.9684-1.2375-0.9297-2.75zm-68.534-0.191c-0.9592-1.552 3.6762-6.4881 5.5168-5.8746 0.849 0.283 0.2755 1.5352-1.7323 3.7823-2.1741 2.4333-3.2173 3.01-3.7845 2.0923zm-8.0494-3.2272c-0.5429-1.1925-1.8871-2.655-2.9871-3.25s-2.1922-1.199-2.427-1.3421c-0.2348-0.1432 0.4402-0.9157 1.5-1.7166 2.2352-1.6892 8.0995-1.0722 10.391 1.0933 1.2712 1.2011 1.1561 1.3836-0.8725 1.3836-1.9849 0-2.1454 0.2305-1.0659 1.5312 1.0508 1.2662 0.9422 1.7801-0.6275 2.9682-2.518 1.906-2.7582 1.865-3.9113-0.6676zm121.94-2.3355c-1.4698-1.927-3.822-4.0645-5.227-4.75-2.6738-1.3044-4.1573-3.7463-2.2759-3.7463 0.6012 0 1.8637 0.9 2.8055 2 0.9419 1.1 2.2218 2 2.8442 2 1.7361 0 6.4238 4.7085 6.4238 6.4522 0 2.5188-1.7185 1.7834-4.5706-1.9559zm-43.44 0.27c-10.123-3.1383-22.194-4.4303-31.982-3.4231-14.581 1.5006-20.194 1.3337-24.793-0.737-2.3235-1.046-4.2246-2.257-4.2246-2.691 0-1.8463 2.1857-1.853 5.7832-0.018 3.7153 1.8955 4.3097 1.912 16.784 0.4659 17.389-2.0158 28.005-0.9996 42.159 4.0358 3.7687 1.3407 4.7105 1.3387 8.6946-0.019 2.4574-0.8373 6.4921-3.3041 8.966-5.4817l4.4979-3.9592-0.043-13.216c-0.028-8.6403 0.4822-15.293 1.4736-19.216 3.1558-12.486 3.7276-26.041 1.6872-40-1.0006-6.8455-1.2251-19.106-1.0707-58.476 0.078-19.845 0.5512-24.698 2.1331-21.872 0.9031 1.6137 2.48 24.613 2.1837 31.848-0.7997 19.523-0.8559 39.733-0.1279 46 1.9812 17.055 2.1231 31.221 0.3755 37.5-3.2172 11.558-3.3819 13.037-2.8374 25.472l0.5485 12.529-3.4196 3.5c-3.7665 3.855-15.292 10.065-18.348 9.8866-1.0671-0.062-4.8652-1.0201-8.4402-2.1284zm288.5 1.3474c-1.551-0.6635-0.6988-1.023 3.7957-1.6015 5.4091-0.6962 7.8254-0.2919 6.4536 1.08-1.0385 1.0385-8.1899 1.4023-10.249 0.5215zm-22.471-1.0666c-1.8224-1.1524-1.1741-1.8502 2.7698-2.9813 2.6406-0.7573 2.9848-0.648 2.4588 0.7808-1.0765 2.9238-2.8829 3.6841-5.2286 2.2005zm43.721 0.2987c0.6875-0.2774 1.8125-0.2774 2.5 0s0.125 0.5044-1.25 0.5044-1.9375-0.227-1.25-0.5044zm-58.304-1.4248c-0.3696-0.598-0.2105-1.5486 0.3534-2.1125 1.2395-1.2396 6.3821 0.2448 6.9712 2.0121 0.509 1.527-6.3845 1.6215-7.3246 0.1004zm-204.6-5.6734c-1.2877-1.5212-4.2535-4.2976-6.5908-6.1698-2.3373-1.8721-4.0758-3.5776-3.8635-3.79 0.7889-0.7889 14.613 8.8697 14.613 10.21 0 2.6244-1.8184 2.5151-4.1588-0.2499zm214.91 2.0176c-2.6441-0.6101-2.0968-2.2571 0.75-2.2571 3.4562 0 3.1283-1.3244-0.6841-2.7634-1.7512-0.661-2.8964-1.4894-2.5449-1.8409s6.8468-0.7099 14.434-0.7965c7.9413-0.091 14.609-0.6262 15.713-1.2621 1.6956-0.9765 1.4636-1.1791-2-1.7469-2.1548-0.3533-6.8429-0.602-10.418-0.5527-3.575 0.049-8.75-0.3361-11.5-0.8563-5.0411-0.95384 0.4438-1.2287 31.747-1.5914 8.552-0.099 10.738 1.5976 3.1049 2.4102-2.5834 0.275-4.8885 1.0821-5.1224 1.7936-0.3084 0.9377 0.2893 1.1142 2.1724 0.6416 1.4289-0.3586 2.5979-0.4102 2.5979-0.1145 0 0.2956-2.4672 1.0497-5.4826 1.6757-9.2625 1.9229-7.2252 2.9128 5.9085 2.8711 12.464-0.04 16.283 0.5967 13.368 2.2277-2.3801 1.3319-38.141 1.3639-38.584 0.034-0.5186-1.5556-2.9381-1.4203-3.9102 0.2186-0.8487 1.431-6.6206 2.5847-9.5497 1.9089zm-349.26-1.27c-0.3399-0.55-0.1415-1 0.441-1 0.5824 0 1.059 0.45 1.059 1s-0.1984 1-0.441 1c-0.2425 0-0.7191-0.45-1.059-1zm-24.5-3.46c0-2.037 0.7305-2.6683 4.25-3.6725 2.3375-0.667 4.925-1.7445 5.75-2.3946s3.9371-2.4849 6.9157-4.0775c4.4001-2.3525 6.6506-2.8955 12-2.8955h6.5843l-0.269 3.5557c-0.2418 3.1954 0.091 3.7274 3.2839 5.25 1.9541 0.9318 4.2127 1.6943 5.019 1.6943 1.6045 0 1.9853 1.5611 0.591 2.4228-1.2179 0.7527-9.7527-2.2694-11.144-3.946-1.0124-1.2198-1.6673-3.2197-1.9043-5.8147-0.1367-1.497-8.4371 0.4739-14.076 3.3424-3.025 1.5386-7.6375 3.8128-10.25 5.0537s-4.75 2.6355-4.75 3.099-0.45 0.8428-1 0.8428-1-1.107-1-2.4599zm359.58 0.5916c-1.6046-0.3475-3.1266-1.2601-3.3821-2.0281-0.3762-1.1305 0.5146-1.2664 4.6797-0.7139 6.0541 0.8031 8.1199 1.4944 8.1199 2.7173 0 0.9892-4.9033 1.0021-9.4175 0.025zm-202.33-8.12c-5.6133-3.5612-7.802-6.0159-5.364-6.0159 1.4426 0 13.114 8.0836 13.114 9.0827 0 1.5483-1.2637 1.0482-7.75-3.0668zm5.9442-6.3092c-1.185-1.2614-4.4016-3.3989-7.1479-4.75-2.7464-1.3512-5.2162-3.0192-5.4885-3.7067-0.6831-1.7249 2.9075-1.5992 4.3614 0.1526 0.6403 0.7715 3.5587 2.5365 6.4855 3.9222 3.264 1.5455 5.5314 3.3229 5.8647 4.5974 0.7301 2.7917-1.3536 2.6815-4.0752-0.2155zm205.07 0.6003c0.973-0.2535 2.323-0.2369 3 0.037 0.6771 0.2739-0.119 0.4814-1.769 0.461-1.65-0.02-2.2039-0.2445-1.231-0.4981zm-1.26-7.06c-5.4135-0.6249-11-2.5682-11-3.8264 0-1.0453 2.1591-1.2218 10.234-0.8365 5.6285 0.2687 10.668 0.9234 11.2 1.4549 0.622 0.622-0.3347 0.9665-2.6838 0.9665-2.0077 0-4.0102 0.5693-4.45 1.265-0.4398 0.6958-1.9247 1.1352-3.2997 0.9765zm-200.5-2.3226c-0.55-0.4455-2.8-2.3964-5-4.3354l-4-3.5255 5.7075 2.639c5.6777 2.6253 7.7441 4.7314 5.4794 5.5846-0.6528 0.246-1.6369 0.083-2.1869-0.3627zm218-1.9189c2.7314-1.1737 3.5-1.1737 3.5 0 0 0.55-1.2375 0.9684-2.75 0.9297-2.4368-0.062-2.5223-0.1682-0.75-0.9297zm-29.25-5.2205c-3.8628-1.863-2.4922-2.7795 4.1564-2.7795 5.914 0 6.3662 0.1537 5.8834 2-0.4067 1.5549-1.3317 1.9849-4.1564 1.9323-1.9984-0.037-4.6459-0.556-5.8834-1.1528zm-191.25-2.84c0-0.5825 0.45-0.7809 1-0.441s1 0.8165 1 1.059-0.45 0.441-1 0.441-1-0.4766-1-1.059zm-9.5589-3.5227c-1.7763-1.4473-1.7855-1.5322-0.1093-1 1.0075 0.3199 2.47 0.5817 3.25 0.5817s1.4182 0.45 1.4182 1c0 1.5048-2.3692 1.2025-4.5589-0.5817zm198.17-1.234c-0.5713-0.9244 9.3687-2.535 10.244-1.6598 0.8137 0.8137-0.1993 1.1962-5.0191 1.8953-2.5638 0.3719-4.9149 0.2659-5.2248-0.2355zm-185.8-1.8674c0.7219-0.2889 1.5844-0.2534 1.9167 0.079 0.3323 0.3323-0.2584 0.5686-1.3125 0.5252-1.165-0.048-1.4019-0.285-0.6042-0.6042zm-14.691-6.2204c-0.758-0.4801-1.0689-1.3732-0.691-1.9847 1.0356-1.6757 2.3754-1.3423 3.5691 0.8882 1.174 2.1936-0.2747 2.7455-2.8781 1.0965zm9.88-2.1c0-1.253 1.0612-1.253 3 0 1.213 0.7838 1.0694 0.9723-0.75 0.9847-1.2375 0.01-2.25-0.4347-2.25-0.9847zm210-1.0314c0-0.5328 0.675-0.9687 1.5-0.9687s1.5 0.1769 1.5 0.3931c0 0.2161-0.675 0.652-1.5 0.9686s-1.5 0.1397-1.5-0.393zm-202.45-2.5573c-1.3633-0.9969-1.5069-1.4069-0.4889-1.396 2.0156 0.021 4.3344 1.6235 3.2868 2.271-0.4772 0.2949-1.7363-0.099-2.7979-0.875zm1.2647-6.0945c0.7219-0.2888 1.5844-0.2533 1.9167 0.079s-0.2584 0.5687-1.3125 0.5253c-1.165-0.048-1.4019-0.285-0.6042-0.6042zm-1.3536-16.383c-0.3625-0.58659-0.4191-1.3066-0.1256-1.6001 0.7164-0.71631 2.6667 0.54583 2.6667 1.7257 0 1.278-1.7264 1.1927-2.5411-0.12555zm-9.96-3.94c-0.7869-1.2732 1.5299-1.2732 3.5 0 1.2195 0.78809 1.0903 0.97224-0.691 0.98469-1.205 0.008-2.4691-0.43469-2.809-0.98469zm2.3803-8.6442c-1.2214-1.4717-1.1031-1.5648 1.1275-0.8876 3.511 1.066 4.8511 2.5318 2.3146 2.5318-1.1426 0-2.6916-0.73991-3.4421-1.6442zm-7.1865-1.9952c-1.0648-1.0648 0.2698-2.3117 1.8325-1.7121 0.8042 0.30861 1.2132 0.96396 0.9089 1.4563-0.6482 1.0488-1.8373 1.1598-2.7414 0.25574zm13.31-4.36c-1.2068-0.77988-1.0486-0.97237 0.809-0.98469 1.2876-0.009 2.0356 0.42706 1.691 0.98469-0.7432 1.2025-0.6393 1.2025-2.5 0zm-11.925-4.5644c-2.3239-1.0084-3.0975-1.8134-2.4066-2.5042 1.0477-1.0476 7.3122 1.7905 7.3251 3.3186 0.01 1.055-0.9924 0.88926-4.9185-0.81436zm5.42-14.45c-4.7025-1.3748-5.5882-1.9238-4.0958-2.5388 1.055-0.43469 3.9415-0.23973 6.4723 0.43716 5.2297 1.3987 5.8543 1.8099 4.5568 2.9998-0.5249 0.48144-3.5585 0.0884-6.9333-0.89821zm5-8.5531c-9.9322-2.863-15.5-4.9049-15.5-5.6842 0-0.53226 0.7875-0.66085 1.75-0.28574 0.9625 0.3751 4.45 1.3668 7.75 2.2039 5.6395 1.4304 8.4236 2.8067 7.4333 3.6745-0.2383 0.20887-0.8833 0.25004-1.4333 0.0915zm-3-11.438c-0.7822-1.2656 0.5416-1.2656 2.5 0 1.2927 0.8354 1.2663 0.97149-0.191 0.98469-0.93 0.008-1.9691-0.43469-2.309-0.98469zm269.5-6c0-0.55 0.45-1 1-1s1 0.45 1 1-0.45 1-1 1-1-0.45-1-1zm-274.75-9.7162c1.5125-0.22913 3.9875-0.22913 5.5 0 1.5125 0.22912 0.275 0.41659-2.75 0.41659s-4.2625-0.18747-2.75-0.41659zm-10.981-31.977c0.973-0.25354 2.323-0.23687 3 0.0371 0.6771 0.27393-0.119 0.48137-1.769 0.46099-1.65-0.0204-2.2039-0.2445-1.231-0.49804zm3.73-4.3c0-0.55-1.3234-1-2.941-1-2.7861 0-4.8863-1.506-3.7229-2.6695 0.5618-0.56176 14.664 3.528 14.664 4.2527 0 0.22923-1.8 0.41677-4 0.41677s-4-0.45-4-1zm281.5-7.7862c-0.55-0.39261-1-1.6138-1-2.7138 0-1.5783-0.768-2.0641-3.6423-2.3039-2.9508-0.24624-3.5525-0.64725-3.1694-2.1123 0.32-1.2234-0.2-1.9843-1.6077-2.3524-4.3316-1.1328-1.1512-3.682 4.638-3.7177 1.4783-0.009 2.042 0.44669 1.6892 1.366-0.2911 0.75879 0.5515 2.2298 1.8726 3.269 3.7116 2.9195 5.2219 6.2778 3.5672 7.9319-0.7412 0.74095-1.7976 1.026-2.3476 0.63334zm-285.99-6.23c0.3454-0.55897 1.047-0.75742 1.559-0.44098 1.387 0.85723 1.1284 1.4573-0.6281 1.4573-0.8575 0-1.2764-0.45734-0.9309-1.0163zm285.06-6.87c-0.3013-0.48747 0.3471-1.1203 1.441-1.4064 1.2888-0.33703 1.9887-0.0251 1.9887 0.88631 0 1.5452-2.5566 1.9329-3.4297 0.52007zm-15.068-21.11c-0.3727-0.60296 0.8671-1.0037 3.1054-1.0037 4.1536 0 4.2137 0.40198 0.2036 1.363-1.4788 0.35439-2.9679 0.1927-3.309-0.35932zm8.4499-1.9144c1.3536-2.5293 3.3258-2.7712 2.8596-0.35078-0.1841 0.95618-1.1544 1.8964-2.1563 2.0893-1.5599 0.30042-1.6609 0.0508-0.7033-1.7385zm-5.3874-7.9845c-0.6326-1.0235 1.6879-2.1048 4.517-2.1048 2.644 0 2.4153 1.6335-0.3318 2.3697-3.0316 0.81244-3.5392 0.7803-4.1852-0.26493zm11.514-4.6881c0.048-1.165 0.285-1.4019 0.6042-0.60417 0.2889 0.72187 0.2534 1.5844-0.079 1.9167-0.3323 0.33229-0.5686-0.25834-0.5252-1.3125zm-10.732-7.8798c1.016-0.76973 2.4759-1.1583 3.2443-0.86341 2.166 0.83119 0.598 2.3302-2.4005 2.2947-2.5209-0.0298-2.5742-0.12028-0.8438-1.4313zm9.0518-5.0834c-0.707-2.8167-0.099-4.0039 1.5345-2.9946 1.339 0.82758 1.4118 5.5411 0.086 5.5411-0.5395 0-1.2686-1.146-1.6201-2.5466zm-0.39-15.81c0-0.80857-1.35-2.6061-3-3.9945-2.8097-2.3642-3.9474-4.6989-2.25-4.6175 3.1451 0.15081 8.3336 8.1763 6.1561 9.5221-0.5 0.3-0.91-0.11-0.91-0.91zm-2.9778-18.398c0.012-0.4125 0.9023-1.875 1.9778-3.25 1.8287-2.3378 1.957-2.367 1.9778-0.45 0.022 2.059-1.6852 4.45-3.1778 4.45-0.44 0-0.79-0.3375-0.7778-0.75zm1.1725-8.5303c-2.1909-2.344-2.2189-2.5526-0.5643-4.2072s1.7835-1.626 2.5982 0.57645c0.4715 1.2746 0.7254 3.1678 0.5643 4.2072-0.2685 1.7323-0.4851 1.6842-2.5982-0.57645zm-19.951-6.9697c0.6405-1.9513 6.7563-2.235 6.7563-0.31336 0 1.127-1.0003 1.5634-3.5833 1.5634-2.4189 0-3.45-0.40621-3.173-1.25zm20.76-14.19c0-0.85746 0.45-1.559 1-1.559s1 0.42344 1 0.94098-0.45 1.2191-1 1.559c-0.55 0.33992-1-0.0835-1-0.94098zm-2-8.559c-0.5887-1.1-1.842-2.0143-2.7852-2.0318-1.6028-0.0297-1.6005-0.11855 0.035-1.3602 0.9625-0.73064 1.75-1.8413 1.75-2.4682 0-0.62687 0.3876-1.1398 0.8613-1.1398 0.4738 0 0.6626 1.0399 0.4196 2.3108-0.2576 1.3477 0.217 2.8575 1.1387 3.6224 1.7666 1.4661 2.0879 3.0667 0.6156 3.0667-0.5307 0-1.4465-0.9-2.0352-2zm-20.15-1c-0.5008-3.3384-0.2303-3.5008 5.9-3.5426 4.7302-0.0323 6.25 0.30007 6.25 1.3666 0 0.95035-0.7012 1.2259-2.1532 0.84617-1.1843-0.30969-3.4119 0.0878-4.9504 0.88337-3.2805 1.6964-4.8382 1.8342-5.0464 0.44645zm21.15-9.38c0-1.375 0.45-2.7781 1-3.118 0.5648-0.34907 1 0.46994 1 1.882 0 1.375-0.45 2.7781-1 3.118-0.5648 0.34907-1-0.46994-1-1.882zm-4.3066-14.975c-0.6455-1.682 1.446-5.9756 2.8066-5.7617 0.55 0.0864 1 0.97572 1 1.9762s0.6176 2.5667 1.3724 3.4806c1.2265 1.4849 1.0518 1.6616-1.643 1.6616-1.6585 0-3.2497-0.61053-3.5361-1.3567zm1.1406-12.584c-1.6016-2.8152-3.841-3.8404-12.084-5.5326-5.0588-1.0385-3.1074-2.8037 2.5781-2.3322 6.467 0.53629 12.672 4.6614 12.672 8.4245 0 3.1944-1.1454 2.9919-3.166-0.55971z"/>
  <metadata>
    <rdf:RDF>
      <cc:Work>
        <dc:format>image/svg+xml</dc:format>
        <dc:type rdf:resource="http://purl.org/dc/dcmitype/StillImage"/>
        <cc:license rdf:resource="http://creativecommons.org/licenses/publicdomain/"/>
        <dc:publisher>
          <cc:Agent rdf:about="http://openclipart.org/">
            <dc:title>Openclipart</dc:title>
          </cc:Agent>
        </dc:publisher>
      </cc:Work>
      <cc:License rdf:about="http://creativecommons.org/licenses/publicdomain/">
        <cc:permits rdf:resource="http://creativecommons.org/ns#Reproduction"/>
        <cc:permits rdf:resource="http://creativecommons.org/ns#Distribution"/>
        <cc:permits rdf:resource="http://creativecommons.org/ns#DerivativeWorks"/>
      </cc:License>
    </rdf:RDF>
  </metadata>
</svg>
